<svg width="108" height="32" viewBox="0 0 108 32" fill="none" xmlns="http://www.w3.org/2000/svg">
<rect x="0.5" y="0.5" width="107" height="31" rx="15.5" fill="white"/>
<rect x="0.5" y="0.5" width="107" height="31" rx="15.5" stroke="#A06ECE"/>
<g clip-path="url(#clip0_139_5566)">
<path fill-rule="evenodd" clip-rule="evenodd" d="M13.2444 7.91107C13.5698 7.58563 14.0975 7.58563 14.4229 7.91107L17.7562 11.2444C18.0817 11.5698 18.0817 12.0975 17.7562 12.4229C17.4308 12.7484 16.9032 12.7484 16.5777 12.4229L14.667 10.5122V21.8337C14.667 22.2939 14.2939 22.667 13.8337 22.667C13.3734 22.667 13.0003 22.2939 13.0003 21.8337V10.5122L11.0896 12.4229C10.7641 12.7484 10.2365 12.7484 9.91107 12.4229C9.58563 12.0975 9.58563 11.5698 9.91107 11.2444L13.2444 7.91107ZM22.167 9.33366C22.6272 9.33366 23.0003 9.70675 23.0003 10.167L23.0003 21.4885L24.9111 19.5777C25.2365 19.2523 25.7641 19.2523 26.0896 19.5777C26.415 19.9032 26.415 20.4308 26.0896 20.7562L22.7562 24.0896C22.6 24.2459 22.388 24.3337 22.167 24.3337C21.946 24.3337 21.734 24.2459 21.5777 24.0896L18.2444 20.7562C17.919 20.4308 17.919 19.9032 18.2444 19.5777C18.5698 19.2523 19.0975 19.2523 19.4229 19.5777L21.3337 21.4885L21.3337 10.167C21.3337 9.70675 21.7068 9.33366 22.167 9.33366Z" fill="#7126B5"/>
</g>
<path d="M42.4989 11.66V12.776H40.2789V20H38.9109V12.776H36.6789V11.66H42.4989ZM49.9444 16.532C49.9444 16.78 49.9284 17.004 49.8964 17.204H44.8444C44.8844 17.732 45.0804 18.156 45.4324 18.476C45.7844 18.796 46.2164 18.956 46.7284 18.956C47.4644 18.956 47.9844 18.648 48.2884 18.032H49.7644C49.5644 18.64 49.2004 19.14 48.6724 19.532C48.1524 19.916 47.5044 20.108 46.7284 20.108C46.0964 20.108 45.5284 19.968 45.0244 19.688C44.5284 19.4 44.1364 19 43.8484 18.488C43.5684 17.968 43.4284 17.368 43.4284 16.688C43.4284 16.008 43.5644 15.412 43.8364 14.9C44.1164 14.38 44.5044 13.98 45.0004 13.7C45.5044 13.42 46.0804 13.28 46.7284 13.28C47.3524 13.28 47.9084 13.416 48.3964 13.688C48.8844 13.96 49.2644 14.344 49.5364 14.84C49.8084 15.328 49.9444 15.892 49.9444 16.532ZM48.5164 16.1C48.5084 15.596 48.3284 15.192 47.9764 14.888C47.6244 14.584 47.1884 14.432 46.6684 14.432C46.1964 14.432 45.7924 14.584 45.4564 14.888C45.1204 15.184 44.9204 15.588 44.8564 16.1H48.5164ZM52.6586 14.348C52.8586 14.012 53.1226 13.752 53.4506 13.568C53.7866 13.376 54.1826 13.28 54.6386 13.28V14.696H54.2906C53.7546 14.696 53.3466 14.832 53.0666 15.104C52.7946 15.376 52.6586 15.848 52.6586 16.52V20H51.2906V13.388H52.6586V14.348ZM63.9001 13.28C64.4201 13.28 64.8841 13.388 65.2921 13.604C65.7081 13.82 66.0321 14.14 66.2641 14.564C66.5041 14.988 66.6241 15.5 66.6241 16.1V20H65.2681V16.304C65.2681 15.712 65.1201 15.26 64.8241 14.948C64.5281 14.628 64.1241 14.468 63.6121 14.468C63.1001 14.468 62.6921 14.628 62.3881 14.948C62.0921 15.26 61.9441 15.712 61.9441 16.304V20H60.5881V16.304C60.5881 15.712 60.4401 15.26 60.1441 14.948C59.8481 14.628 59.4441 14.468 58.9321 14.468C58.4201 14.468 58.0121 14.628 57.7081 14.948C57.4121 15.26 57.2641 15.712 57.2641 16.304V20H55.8961V13.388H57.2641V14.144C57.4881 13.872 57.7721 13.66 58.1161 13.508C58.4601 13.356 58.8281 13.28 59.2201 13.28C59.7481 13.28 60.2201 13.392 60.6361 13.616C61.0521 13.84 61.3721 14.164 61.5961 14.588C61.7961 14.188 62.1081 13.872 62.5321 13.64C62.9561 13.4 63.4121 13.28 63.9001 13.28ZM74.3528 13.388V20H72.9848V19.22C72.7688 19.492 72.4848 19.708 72.1328 19.868C71.7888 20.02 71.4208 20.096 71.0288 20.096C70.5088 20.096 70.0408 19.988 69.6248 19.772C69.2168 19.556 68.8928 19.236 68.6528 18.812C68.4208 18.388 68.3048 17.876 68.3048 17.276V13.388H69.6608V17.072C69.6608 17.664 69.8088 18.12 70.1048 18.44C70.4008 18.752 70.8048 18.908 71.3168 18.908C71.8288 18.908 72.2328 18.752 72.5288 18.44C72.8328 18.12 72.9848 17.664 72.9848 17.072V13.388H74.3528ZM77.5258 14.348C77.7258 14.012 77.9898 13.752 78.3178 13.568C78.6538 13.376 79.0498 13.28 79.5058 13.28V14.696H79.1578C78.6218 14.696 78.2138 14.832 77.9338 15.104C77.6618 15.376 77.5258 15.848 77.5258 16.52V20H76.1578V13.388H77.5258V14.348ZM80.3073 16.664C80.3073 16 80.4433 15.412 80.7153 14.9C80.9953 14.388 81.3713 13.992 81.8433 13.712C82.3233 13.424 82.8513 13.28 83.4273 13.28C83.9473 13.28 84.3993 13.384 84.7833 13.592C85.1753 13.792 85.4873 14.044 85.7193 14.348V13.388H87.0993V20H85.7193V19.016C85.4873 19.328 85.1713 19.588 84.7713 19.796C84.3713 20.004 83.9153 20.108 83.4033 20.108C82.8353 20.108 82.3153 19.964 81.8433 19.676C81.3713 19.38 80.9953 18.972 80.7153 18.452C80.4433 17.924 80.3073 17.328 80.3073 16.664ZM85.7193 16.688C85.7193 16.232 85.6233 15.836 85.4313 15.5C85.2473 15.164 85.0033 14.908 84.6993 14.732C84.3953 14.556 84.0673 14.468 83.7153 14.468C83.3633 14.468 83.0353 14.556 82.7313 14.732C82.4273 14.9 82.1793 15.152 81.9873 15.488C81.8033 15.816 81.7113 16.208 81.7113 16.664C81.7113 17.12 81.8033 17.52 81.9873 17.864C82.1793 18.208 82.4273 18.472 82.7313 18.656C83.0433 18.832 83.3713 18.92 83.7153 18.92C84.0673 18.92 84.3953 18.832 84.6993 18.656C85.0033 18.48 85.2473 18.224 85.4313 17.888C85.6233 17.544 85.7193 17.144 85.7193 16.688ZM92.3161 13.28C92.8201 13.28 93.2681 13.388 93.6601 13.604C94.0601 13.82 94.3721 14.14 94.5961 14.564C94.8281 14.988 94.9441 15.5 94.9441 16.1V20H93.5881V16.304C93.5881 15.712 93.4401 15.26 93.1441 14.948C92.8481 14.628 92.4441 14.468 91.9321 14.468C91.4201 14.468 91.0121 14.628 90.7081 14.948C90.4121 15.26 90.2641 15.712 90.2641 16.304V20H88.8961V11.12H90.2641V14.156C90.4961 13.876 90.7881 13.66 91.1401 13.508C91.5001 13.356 91.8921 13.28 92.3161 13.28Z" fill="#7126B5"/>
<defs>
<clipPath id="clip0_139_5566">
<rect width="16.6667" height="16.6667" fill="white" transform="translate(9.66699 7.66699)"/>
</clipPath>
</defs>
</svg>
