<svg xmlns="http://www.w3.org/2000/svg" xmlns:xlink="http://www.w3.org/1999/xlink" width="58" zoomAndPan="magnify" viewBox="0 0 43.5 43.499999" height="58" preserveAspectRatio="xMidYMid meet" version="1.0"><defs><clipPath id="a82b052d3d"><path d="M 0 0 L 43.003906 0 L 43.003906 43.003906 L 0 43.003906 Z M 0 0 " clip-rule="nonzero"/></clipPath><clipPath id="1707fd8dc3"><path d="M 8.898438 0 L 34.109375 0 C 36.46875 0 38.730469 0.9375 40.398438 2.605469 C 42.066406 4.273438 43.003906 6.539062 43.003906 8.898438 L 43.003906 34.109375 C 43.003906 36.46875 42.066406 38.730469 40.398438 40.398438 C 38.730469 42.066406 36.46875 43.003906 34.109375 43.003906 L 8.898438 43.003906 C 6.539062 43.003906 4.273438 42.066406 2.605469 40.398438 C 0.9375 38.730469 0 36.46875 0 34.109375 L 0 8.898438 C 0 6.539062 0.9375 4.273438 2.605469 2.605469 C 4.273438 0.9375 6.539062 0 8.898438 0 Z M 8.898438 0 " clip-rule="nonzero"/></clipPath><clipPath id="5d44115a1a"><path d="M 8.304688 11 L 32 11 L 32 36.933594 L 8.304688 36.933594 Z M 8.304688 11 " clip-rule="nonzero"/></clipPath><clipPath id="312f1dd686"><path d="M 16 22 L 32 22 L 32 36.933594 L 16 36.933594 Z M 16 22 " clip-rule="nonzero"/></clipPath><clipPath id="f42ba12694"><path d="M 28 5.789062 L 34.996094 5.789062 L 34.996094 12 L 28 12 Z M 28 5.789062 " clip-rule="nonzero"/></clipPath><clipPath id="d0c61a4a3f"><path d="M 29 5.789062 L 34 5.789062 L 34 9 L 29 9 Z M 29 5.789062 " clip-rule="nonzero"/></clipPath></defs><g clip-path="url(#a82b052d3d)"><g clip-path="url(#1707fd8dc3)"><path fill="#fff0dc" d="M 0 0 L 43.003906 0 L 43.003906 43.003906 L 0 43.003906 Z M 0 0 " fill-opacity="1" fill-rule="nonzero"/></g></g><g clip-path="url(#5d44115a1a)"><path fill="#7126b5" d="M 27.9375 11.320312 C 26.96875 12.238281 25.984375 13.140625 25.003906 14.046875 C 24.023438 14.953125 23.042969 15.859375 22.074219 16.769531 C 21.105469 17.683594 20.144531 18.605469 19.195312 19.539062 L 18.492188 20.242188 L 17.785156 20.953125 L 17.09375 21.671875 C 16.867188 21.90625 16.636719 22.148438 16.414062 22.390625 C 15.964844 22.875 15.527344 23.367188 15.101562 23.871094 C 14.671875 24.375 14.261719 24.886719 13.859375 25.40625 C 13.058594 26.449219 12.304688 27.527344 11.632812 28.648438 C 11.300781 29.207031 10.984375 29.777344 10.699219 30.355469 C 10.417969 30.9375 10.164062 31.527344 9.96875 32.128906 C 9.871094 32.425781 9.78125 32.730469 9.714844 33.027344 C 9.648438 33.324219 9.597656 33.628906 9.582031 33.917969 C 9.570312 34.0625 9.570312 34.203125 9.578125 34.34375 C 9.585938 34.484375 9.601562 34.613281 9.628906 34.742188 C 9.679688 35 9.773438 35.214844 9.910156 35.390625 C 10.042969 35.5625 10.21875 35.695312 10.4375 35.78125 C 10.65625 35.875 10.921875 35.921875 11.199219 35.933594 C 11.339844 35.9375 11.480469 35.9375 11.625 35.929688 C 11.699219 35.925781 11.773438 35.914062 11.847656 35.90625 C 11.921875 35.898438 11.996094 35.890625 12.070312 35.878906 C 12.371094 35.828125 12.667969 35.757812 12.96875 35.675781 C 13.570312 35.503906 14.167969 35.269531 14.75 35.003906 C 15.339844 34.734375 15.910156 34.429688 16.476562 34.105469 C 17.042969 33.785156 17.59375 33.4375 18.136719 33.070312 C 18.679688 32.703125 19.21875 32.328125 19.742188 31.929688 L 19.941406 31.785156 L 20.132812 31.632812 C 20.261719 31.53125 20.394531 31.433594 20.523438 31.332031 C 20.777344 31.125 21.039062 30.921875 21.289062 30.707031 C 21.800781 30.289062 22.292969 29.855469 22.785156 29.414062 C 23.03125 29.191406 23.273438 28.96875 23.511719 28.742188 C 23.632812 28.628906 23.753906 28.515625 23.871094 28.402344 L 24.230469 28.054688 C 24.699219 27.589844 25.160156 27.121094 25.613281 26.636719 C 26.0625 26.15625 26.503906 25.660156 26.9375 25.160156 C 27.367188 24.65625 27.785156 24.144531 28.1875 23.617188 C 28.59375 23.09375 28.984375 22.558594 29.355469 22.011719 C 29.730469 21.46875 30.078125 20.902344 30.410156 20.332031 C 30.738281 19.757812 31.042969 19.167969 31.304688 18.554688 C 31.566406 17.945312 31.78125 17.316406 31.914062 16.664062 C 31.851562 17.328125 31.695312 17.984375 31.484375 18.625 L 31.402344 18.859375 C 31.375 18.9375 31.34375 19.019531 31.316406 19.097656 C 31.257812 19.257812 31.195312 19.414062 31.132812 19.570312 C 31.003906 19.882812 30.867188 20.191406 30.726562 20.492188 C 30.148438 21.710938 29.453125 22.871094 28.699219 23.984375 C 28.320312 24.542969 27.925781 25.085938 27.515625 25.625 C 27.105469 26.160156 26.683594 26.683594 26.246094 27.195312 C 25.371094 28.222656 24.445312 29.203125 23.480469 30.144531 C 22.507812 31.085938 21.5 31.984375 20.433594 32.828125 C 19.90625 33.25 19.363281 33.65625 18.804688 34.046875 C 18.246094 34.433594 17.675781 34.804688 17.089844 35.15625 L 16.871094 35.289062 L 16.644531 35.414062 C 16.496094 35.5 16.347656 35.585938 16.195312 35.664062 C 16.042969 35.742188 15.890625 35.828125 15.734375 35.902344 C 15.582031 35.980469 15.425781 36.054688 15.269531 36.128906 C 14.648438 36.421875 14 36.683594 13.320312 36.886719 C 12.980469 36.992188 12.628906 37.070312 12.269531 37.128906 C 12.175781 37.144531 12.085938 37.15625 11.992188 37.167969 C 11.902344 37.175781 11.808594 37.1875 11.714844 37.195312 C 11.527344 37.210938 11.339844 37.210938 11.144531 37.203125 C 10.757812 37.1875 10.351562 37.125 9.953125 36.960938 C 9.753906 36.878906 9.558594 36.773438 9.378906 36.636719 C 9.199219 36.503906 9.039062 36.34375 8.902344 36.164062 C 8.628906 35.808594 8.464844 35.390625 8.386719 34.996094 C 8.34375 34.796875 8.320312 34.597656 8.316406 34.402344 C 8.308594 34.207031 8.308594 34.015625 8.320312 33.828125 C 8.375 33.078125 8.554688 32.382812 8.785156 31.71875 C 9.015625 31.050781 9.296875 30.417969 9.605469 29.800781 C 9.914062 29.183594 10.253906 28.589844 10.613281 28.007812 C 11.335938 26.851562 12.132812 25.753906 12.988281 24.699219 C 13.414062 24.175781 13.851562 23.664062 14.308594 23.160156 C 14.761719 22.65625 15.222656 22.167969 15.703125 21.691406 C 15.9375 21.449219 16.179688 21.214844 16.421875 20.980469 L 17.152344 20.289062 L 17.886719 19.605469 L 18.628906 18.929688 C 19.628906 18.03125 20.640625 17.15625 21.667969 16.300781 C 22.695312 15.441406 23.734375 14.597656 24.78125 13.769531 C 25.816406 12.945312 26.871094 12.128906 27.9375 11.320312 Z M 27.9375 11.320312 " fill-opacity="1" fill-rule="nonzero"/></g><path fill="#a06ece" d="M 29.6875 18.492188 C 29.640625 18.609375 29.589844 18.730469 29.542969 18.851562 C 29.515625 18.921875 29.480469 18.988281 29.449219 19.058594 C 29.421875 19.128906 29.394531 19.195312 29.359375 19.269531 C 29.292969 19.40625 29.234375 19.546875 29.164062 19.6875 C 28.621094 20.796875 27.964844 21.886719 27.246094 22.941406 C 26.523438 24 25.734375 25.023438 24.902344 26.011719 C 24.484375 26.503906 24.054688 26.992188 23.613281 27.464844 L 23.28125 27.820312 C 23.171875 27.941406 23.058594 28.054688 22.945312 28.171875 C 22.722656 28.40625 22.492188 28.632812 22.265625 28.863281 C 21.800781 29.320312 21.335938 29.769531 20.847656 30.199219 C 20.613281 30.421875 20.363281 30.632812 20.121094 30.84375 C 19.996094 30.949219 19.871094 31.050781 19.75 31.15625 L 19.5625 31.3125 L 19.375 31.464844 C 18.878906 31.878906 18.363281 32.269531 17.84375 32.652344 C 17.324219 33.03125 16.789062 33.390625 16.246094 33.726562 L 16.042969 33.855469 L 15.835938 33.976562 C 15.699219 34.058594 15.558594 34.140625 15.421875 34.21875 C 15.28125 34.292969 15.144531 34.375 15.003906 34.449219 C 14.863281 34.523438 14.726562 34.59375 14.582031 34.667969 C 14.546875 34.683594 14.511719 34.699219 14.476562 34.71875 C 12.878906 33.726562 11.542969 32.347656 10.601562 30.714844 C 10.320312 30.222656 10.074219 29.707031 9.867188 29.175781 C 9.371094 27.902344 9.097656 26.515625 9.097656 25.066406 C 9.097656 18.804688 14.179688 13.722656 20.441406 13.722656 C 21.75 13.722656 23.007812 13.945312 24.179688 14.355469 C 24.269531 14.386719 24.359375 14.417969 24.445312 14.453125 C 26.574219 15.25 28.390625 16.667969 29.6875 18.492188 Z M 29.6875 18.492188 " fill-opacity="1" fill-rule="nonzero"/><g clip-path="url(#312f1dd686)"><path fill="#7126b5" d="M 31.785156 25.0625 C 31.785156 31.328125 26.707031 36.40625 20.441406 36.40625 C 19.167969 36.40625 17.9375 36.195312 16.792969 35.804688 C 16.8125 35.800781 16.824219 35.789062 16.84375 35.78125 L 17.074219 35.660156 L 17.300781 35.535156 C 17.90625 35.199219 18.503906 34.84375 19.082031 34.464844 C 19.660156 34.089844 20.226562 33.699219 20.78125 33.292969 L 20.988281 33.140625 L 21.195312 32.984375 C 21.332031 32.878906 21.46875 32.777344 21.605469 32.671875 C 21.875 32.457031 22.148438 32.25 22.414062 32.03125 C 22.949219 31.597656 23.46875 31.152344 23.980469 30.695312 C 24.234375 30.464844 24.492188 30.238281 24.742188 30 C 24.867188 29.882812 24.992188 29.765625 25.117188 29.648438 L 25.488281 29.292969 C 25.980469 28.8125 26.460938 28.320312 26.933594 27.820312 C 27.875 26.816406 28.777344 25.765625 29.621094 24.660156 C 30.246094 23.839844 30.84375 22.988281 31.390625 22.085938 C 31.648438 23.039062 31.785156 24.035156 31.785156 25.0625 Z M 31.785156 25.0625 " fill-opacity="1" fill-rule="nonzero"/></g><path fill="#7126b5" d="M 27.9375 11.320312 C 26.773438 12.363281 25.605469 13.402344 24.449219 14.449219 C 24.359375 14.417969 24.273438 14.382812 24.179688 14.351562 C 25.425781 13.332031 26.683594 12.328125 27.9375 11.320312 Z M 27.9375 11.320312 " fill-opacity="1" fill-rule="nonzero"/><g clip-path="url(#f42ba12694)"><path fill="#7126b5" d="M 34.167969 7.042969 C 34.09375 7.109375 34.011719 7.183594 33.921875 7.261719 C 32.507812 8.46875 28.4375 11.175781 28.296875 11 C 28.15625 10.824219 31.675781 7.433594 33.164062 6.3125 C 33.253906 6.242188 33.347656 6.175781 33.425781 6.121094 C 33.636719 5.972656 33.847656 5.894531 34.035156 5.855469 C 34.335938 5.789062 34.578125 5.839844 34.636719 5.902344 C 34.636719 5.902344 34.640625 5.90625 34.640625 5.90625 C 34.640625 5.90625 34.640625 5.910156 34.640625 5.910156 C 34.691406 5.980469 34.6875 6.226562 34.5625 6.507812 C 34.480469 6.679688 34.355469 6.871094 34.167969 7.042969 Z M 34.167969 7.042969 " fill-opacity="1" fill-rule="nonzero"/></g><path fill="#7126b5" d="M 29.589844 11.511719 L 28.832031 10.566406 L 29.40625 10.109375 L 29.808594 11.339844 Z M 29.589844 11.511719 " fill-opacity="1" fill-rule="nonzero"/><path fill="#7126b5" d="M 33.289062 11.171875 L 31.746094 8.230469 L 33.019531 7.210938 L 33.609375 10.914062 Z M 33.289062 11.171875 " fill-opacity="1" fill-rule="nonzero"/><g clip-path="url(#d0c61a4a3f)"><path fill="#7126b5" d="M 29.207031 6.085938 L 31.746094 8.230469 L 33.019531 7.210938 L 29.527344 5.828125 Z M 29.207031 6.085938 " fill-opacity="1" fill-rule="nonzero"/></g><path fill="#7126b5" d="M 28.078125 9.625 L 28.832031 10.566406 L 29.40625 10.109375 L 28.292969 9.453125 Z M 28.078125 9.625 " fill-opacity="1" fill-rule="nonzero"/></svg>