<svg xmlns="http://www.w3.org/2000/svg" xmlns:xlink="http://www.w3.org/1999/xlink" width="158" zoomAndPan="magnify" viewBox="0 0 118.5 43.499998" height="58" preserveAspectRatio="xMidYMid meet" version="1.0"><defs><g/><clipPath id="3b533205ff"><path d="M 2.464844 10 L 29 10 L 29 38.453125 L 2.464844 38.453125 Z M 2.464844 10 " clip-rule="nonzero"/></clipPath><clipPath id="54ed71becf"><path d="M 24 4.34375 L 31.382812 4.34375 L 31.382812 11 L 24 11 Z M 24 4.34375 " clip-rule="nonzero"/></clipPath><clipPath id="814cc62ec7"><path d="M 25 4.34375 L 30 4.34375 L 30 8 L 25 8 Z M 25 4.34375 " clip-rule="nonzero"/></clipPath></defs><g fill="#7126b5" fill-opacity="1"><g transform="translate(33.631219, 22.358049)"><g><path d="M 4.453125 0.15625 C 3.515625 0.15625 2.710938 0.03125 2.046875 -0.21875 C 1.390625 -0.46875 0.890625 -0.804688 0.546875 -1.234375 C 0.210938 -1.660156 0.046875 -2.132812 0.046875 -2.65625 C 0.046875 -2.738281 0.0546875 -2.863281 0.078125 -3.03125 C 0.0859375 -3.125 0.128906 -3.203125 0.203125 -3.265625 C 0.285156 -3.335938 0.375 -3.375 0.46875 -3.375 L 2.59375 -3.375 C 2.726562 -3.375 2.828125 -3.347656 2.890625 -3.296875 C 2.960938 -3.253906 3.035156 -3.179688 3.109375 -3.078125 C 3.191406 -2.828125 3.363281 -2.617188 3.625 -2.453125 C 3.882812 -2.296875 4.242188 -2.21875 4.703125 -2.21875 C 5.265625 -2.21875 5.722656 -2.300781 6.078125 -2.46875 C 6.429688 -2.644531 6.644531 -2.882812 6.71875 -3.1875 C 6.726562 -3.226562 6.734375 -3.289062 6.734375 -3.375 C 6.734375 -3.632812 6.566406 -3.835938 6.234375 -3.984375 C 5.910156 -4.128906 5.320312 -4.296875 4.46875 -4.484375 C 2.375 -4.921875 1.328125 -5.851562 1.328125 -7.28125 C 1.328125 -7.53125 1.359375 -7.785156 1.421875 -8.046875 C 1.628906 -9.035156 2.15625 -9.8125 3 -10.375 C 3.851562 -10.945312 4.953125 -11.234375 6.296875 -11.234375 C 7.097656 -11.234375 7.8125 -11.085938 8.4375 -10.796875 C 9.070312 -10.515625 9.566406 -10.15625 9.921875 -9.71875 C 10.273438 -9.28125 10.453125 -8.835938 10.453125 -8.390625 C 10.453125 -8.335938 10.441406 -8.25 10.421875 -8.125 C 10.398438 -8.03125 10.359375 -7.945312 10.296875 -7.875 C 10.234375 -7.8125 10.15625 -7.78125 10.0625 -7.78125 L 7.8125 -7.78125 C 7.582031 -7.78125 7.425781 -7.875 7.34375 -8.0625 C 7.320312 -8.28125 7.195312 -8.46875 6.96875 -8.625 C 6.738281 -8.78125 6.441406 -8.859375 6.078125 -8.859375 C 5.617188 -8.859375 5.25 -8.773438 4.96875 -8.609375 C 4.6875 -8.453125 4.507812 -8.222656 4.4375 -7.921875 C 4.425781 -7.878906 4.421875 -7.820312 4.421875 -7.75 C 4.421875 -7.5 4.566406 -7.296875 4.859375 -7.140625 C 5.148438 -6.984375 5.671875 -6.828125 6.421875 -6.671875 C 7.609375 -6.453125 8.472656 -6.117188 9.015625 -5.671875 C 9.566406 -5.234375 9.84375 -4.648438 9.84375 -3.921875 C 9.84375 -3.628906 9.816406 -3.367188 9.765625 -3.140625 C 9.535156 -2.054688 8.96875 -1.234375 8.0625 -0.671875 C 7.164062 -0.117188 5.960938 0.15625 4.453125 0.15625 Z M 4.453125 0.15625 "/></g></g></g><g fill="#7126b5" fill-opacity="1"><g transform="translate(44.32178, 22.358049)"><g><path d="M 0.3125 0 C 0.195312 0 0.109375 -0.0351562 0.046875 -0.109375 C -0.00390625 -0.191406 -0.0195312 -0.285156 0 -0.390625 L 2.21875 -10.828125 C 2.238281 -10.941406 2.296875 -11.035156 2.390625 -11.109375 C 2.484375 -11.191406 2.582031 -11.234375 2.6875 -11.234375 L 4.640625 -11.234375 C 4.753906 -11.234375 4.835938 -11.191406 4.890625 -11.109375 C 4.953125 -11.023438 4.972656 -10.929688 4.953125 -10.828125 L 3.84375 -5.578125 L 6.390625 -7.953125 C 6.515625 -8.046875 6.613281 -8.113281 6.6875 -8.15625 C 6.757812 -8.195312 6.859375 -8.21875 6.984375 -8.21875 L 9.359375 -8.21875 C 9.453125 -8.21875 9.523438 -8.191406 9.578125 -8.140625 C 9.628906 -8.097656 9.65625 -8.039062 9.65625 -7.96875 C 9.65625 -7.84375 9.59375 -7.722656 9.46875 -7.609375 L 6.046875 -4.34375 L 8.28125 -0.5625 C 8.320312 -0.507812 8.34375 -0.441406 8.34375 -0.359375 C 8.34375 -0.265625 8.304688 -0.179688 8.234375 -0.109375 C 8.160156 -0.0351562 8.0625 0 7.9375 0 L 5.734375 0 C 5.523438 0 5.367188 -0.0820312 5.265625 -0.25 L 3.375 -3.453125 L 2.734375 -0.390625 C 2.710938 -0.273438 2.65625 -0.179688 2.5625 -0.109375 C 2.46875 -0.0351562 2.367188 0 2.265625 0 Z M 0.3125 0 "/></g></g></g><g fill="#7126b5" fill-opacity="1"><g transform="translate(53.889524, 22.358049)"><g><path d="M 0.8125 3 C 0.726562 3 0.65625 2.972656 0.59375 2.921875 C 0.539062 2.878906 0.515625 2.816406 0.515625 2.734375 C 0.515625 2.660156 0.539062 2.582031 0.59375 2.5 L 2.53125 -0.53125 L 1 -7.765625 C 0.976562 -7.890625 1.003906 -7.992188 1.078125 -8.078125 C 1.148438 -8.171875 1.265625 -8.21875 1.421875 -8.21875 L 3.1875 -8.21875 C 3.414062 -8.21875 3.550781 -8.109375 3.59375 -7.890625 L 4.453125 -3.40625 L 7.265625 -7.890625 C 7.398438 -8.109375 7.582031 -8.21875 7.8125 -8.21875 L 9.796875 -8.21875 C 9.890625 -8.21875 9.960938 -8.191406 10.015625 -8.140625 C 10.066406 -8.085938 10.09375 -8.023438 10.09375 -7.953125 C 10.09375 -7.867188 10.070312 -7.800781 10.03125 -7.75 L 3.328125 2.671875 C 3.265625 2.765625 3.1875 2.84375 3.09375 2.90625 C 3 2.96875 2.890625 3 2.765625 3 Z M 0.8125 3 "/></g></g></g><g fill="#7126b5" fill-opacity="1"><g transform="translate(63.678662, 22.358049)"><g><path d="M 2.90625 0 C 2.789062 0 2.703125 -0.0351562 2.640625 -0.109375 C 2.578125 -0.179688 2.554688 -0.273438 2.578125 -0.390625 L 4.296875 -8.484375 L 1.515625 -8.484375 C 1.398438 -8.484375 1.3125 -8.519531 1.25 -8.59375 C 1.1875 -8.675781 1.164062 -8.773438 1.1875 -8.890625 L 1.5625 -10.65625 C 1.582031 -10.769531 1.640625 -10.863281 1.734375 -10.9375 C 1.828125 -11.019531 1.9375 -11.0625 2.0625 -11.0625 L 10.640625 -11.0625 C 10.753906 -11.0625 10.84375 -11.019531 10.90625 -10.9375 C 10.96875 -10.863281 10.988281 -10.769531 10.96875 -10.65625 L 10.578125 -8.890625 C 10.554688 -8.773438 10.5 -8.675781 10.40625 -8.59375 C 10.320312 -8.519531 10.222656 -8.484375 10.109375 -8.484375 L 7.328125 -8.484375 L 5.578125 -0.390625 C 5.554688 -0.273438 5.5 -0.179688 5.40625 -0.109375 C 5.320312 -0.0351562 5.222656 0 5.109375 0 Z M 2.90625 0 "/></g></g></g><g fill="#7126b5" fill-opacity="1"><g transform="translate(73.831535, 22.358049)"><g><path d="M 2.3125 -9.359375 C 2.195312 -9.359375 2.101562 -9.394531 2.03125 -9.46875 C 1.96875 -9.550781 1.945312 -9.648438 1.96875 -9.765625 L 2.296875 -11.25 C 2.316406 -11.363281 2.375 -11.457031 2.46875 -11.53125 C 2.570312 -11.613281 2.675781 -11.65625 2.78125 -11.65625 L 4.765625 -11.65625 C 4.878906 -11.65625 4.96875 -11.613281 5.03125 -11.53125 C 5.09375 -11.457031 5.113281 -11.363281 5.09375 -11.25 L 4.765625 -9.765625 C 4.753906 -9.648438 4.695312 -9.550781 4.59375 -9.46875 C 4.5 -9.394531 4.394531 -9.359375 4.28125 -9.359375 Z M 0.3125 0 C 0.195312 0 0.109375 -0.0351562 0.046875 -0.109375 C -0.00390625 -0.191406 -0.0195312 -0.285156 0 -0.390625 L 1.5625 -7.828125 C 1.582031 -7.929688 1.640625 -8.019531 1.734375 -8.09375 C 1.828125 -8.175781 1.9375 -8.21875 2.0625 -8.21875 L 4.03125 -8.21875 C 4.144531 -8.21875 4.226562 -8.179688 4.28125 -8.109375 C 4.34375 -8.035156 4.363281 -7.941406 4.34375 -7.828125 L 2.765625 -0.390625 C 2.742188 -0.273438 2.6875 -0.179688 2.59375 -0.109375 C 2.507812 -0.0351562 2.410156 0 2.296875 0 Z M 0.3125 0 "/></g></g></g><g fill="#7126b5" fill-opacity="1"><g transform="translate(78.575887, 22.358049)"><g><path d="M 3.8125 0.15625 C 3.132812 0.15625 2.53125 0.0390625 2 -0.1875 C 1.46875 -0.425781 1.046875 -0.769531 0.734375 -1.21875 C 0.429688 -1.664062 0.28125 -2.203125 0.28125 -2.828125 C 0.28125 -3.023438 0.296875 -3.238281 0.328125 -3.46875 L 0.59375 -4.75 C 0.90625 -5.90625 1.472656 -6.796875 2.296875 -7.421875 C 3.117188 -8.054688 4.140625 -8.375 5.359375 -8.375 C 6.203125 -8.375 6.898438 -8.222656 7.453125 -7.921875 C 8.015625 -7.628906 8.425781 -7.269531 8.6875 -6.84375 C 8.945312 -6.414062 9.078125 -6.015625 9.078125 -5.640625 L 9.0625 -5.46875 C 9.050781 -5.363281 9 -5.269531 8.90625 -5.1875 C 8.820312 -5.113281 8.722656 -5.078125 8.609375 -5.078125 L 6.453125 -5.078125 C 6.242188 -5.078125 6.125 -5.179688 6.09375 -5.390625 C 6.070312 -5.691406 5.976562 -5.914062 5.8125 -6.0625 C 5.65625 -6.207031 5.429688 -6.28125 5.140625 -6.28125 C 4.316406 -6.28125 3.769531 -5.742188 3.5 -4.671875 C 3.375 -4.097656 3.289062 -3.722656 3.25 -3.546875 C 3.207031 -3.242188 3.1875 -3.046875 3.1875 -2.953125 C 3.1875 -2.609375 3.265625 -2.351562 3.421875 -2.1875 C 3.585938 -2.019531 3.832031 -1.9375 4.15625 -1.9375 C 4.46875 -1.9375 4.734375 -2.003906 4.953125 -2.140625 C 5.171875 -2.285156 5.363281 -2.503906 5.53125 -2.796875 C 5.59375 -2.910156 5.660156 -2.992188 5.734375 -3.046875 C 5.804688 -3.097656 5.90625 -3.125 6.03125 -3.125 L 8.171875 -3.125 C 8.285156 -3.125 8.367188 -3.082031 8.421875 -3 C 8.484375 -2.925781 8.5 -2.832031 8.46875 -2.71875 C 8.363281 -2.363281 8.140625 -1.960938 7.796875 -1.515625 C 7.453125 -1.078125 6.941406 -0.6875 6.265625 -0.34375 C 5.597656 -0.0078125 4.78125 0.15625 3.8125 0.15625 Z M 3.8125 0.15625 "/></g></g></g><g fill="#7126b5" fill-opacity="1"><g transform="translate(88.09618, 22.358049)"><g><path d="M 0.3125 0 C 0.195312 0 0.109375 -0.0351562 0.046875 -0.109375 C -0.00390625 -0.191406 -0.0195312 -0.285156 0 -0.390625 L 2.21875 -10.828125 C 2.238281 -10.941406 2.296875 -11.035156 2.390625 -11.109375 C 2.484375 -11.191406 2.582031 -11.234375 2.6875 -11.234375 L 4.640625 -11.234375 C 4.753906 -11.234375 4.835938 -11.191406 4.890625 -11.109375 C 4.953125 -11.023438 4.972656 -10.929688 4.953125 -10.828125 L 3.84375 -5.578125 L 6.390625 -7.953125 C 6.515625 -8.046875 6.613281 -8.113281 6.6875 -8.15625 C 6.757812 -8.195312 6.859375 -8.21875 6.984375 -8.21875 L 9.359375 -8.21875 C 9.453125 -8.21875 9.523438 -8.191406 9.578125 -8.140625 C 9.628906 -8.097656 9.65625 -8.039062 9.65625 -7.96875 C 9.65625 -7.84375 9.59375 -7.722656 9.46875 -7.609375 L 6.046875 -4.34375 L 8.28125 -0.5625 C 8.320312 -0.507812 8.34375 -0.441406 8.34375 -0.359375 C 8.34375 -0.265625 8.304688 -0.179688 8.234375 -0.109375 C 8.160156 -0.0351562 8.0625 0 7.9375 0 L 5.734375 0 C 5.523438 0 5.367188 -0.0820312 5.265625 -0.25 L 3.375 -3.453125 L 2.734375 -0.390625 C 2.710938 -0.273438 2.65625 -0.179688 2.5625 -0.109375 C 2.46875 -0.0351562 2.367188 0 2.265625 0 Z M 0.3125 0 "/></g></g></g><g fill="#7126b5" fill-opacity="1"><g transform="translate(97.663924, 22.358049)"><g><path d="M 3.953125 0.15625 C 2.859375 0.15625 2.007812 -0.09375 1.40625 -0.59375 C 0.8125 -1.09375 0.515625 -1.832031 0.515625 -2.8125 C 0.515625 -3.175781 0.550781 -3.535156 0.625 -3.890625 L 0.75 -4.375 C 1.050781 -5.632812 1.644531 -6.613281 2.53125 -7.3125 C 3.425781 -8.019531 4.5 -8.375 5.75 -8.375 C 6.882812 -8.375 7.734375 -8.097656 8.296875 -7.546875 C 8.867188 -6.992188 9.15625 -6.242188 9.15625 -5.296875 C 9.15625 -4.960938 9.113281 -4.582031 9.03125 -4.15625 L 8.953125 -3.765625 C 8.921875 -3.648438 8.859375 -3.550781 8.765625 -3.46875 C 8.671875 -3.394531 8.5625 -3.359375 8.4375 -3.359375 L 3.4375 -3.359375 L 3.421875 -3.25 C 3.390625 -3.082031 3.375 -2.914062 3.375 -2.75 C 3.375 -2.425781 3.453125 -2.164062 3.609375 -1.96875 C 3.765625 -1.769531 4 -1.671875 4.3125 -1.671875 C 4.570312 -1.671875 4.785156 -1.71875 4.953125 -1.8125 C 5.128906 -1.914062 5.300781 -2.050781 5.46875 -2.21875 C 5.582031 -2.320312 5.671875 -2.382812 5.734375 -2.40625 C 5.804688 -2.4375 5.90625 -2.453125 6.03125 -2.453125 L 8.109375 -2.453125 C 8.203125 -2.453125 8.273438 -2.421875 8.328125 -2.359375 C 8.378906 -2.296875 8.394531 -2.21875 8.375 -2.125 C 8.300781 -1.832031 8.066406 -1.503906 7.671875 -1.140625 C 7.285156 -0.785156 6.769531 -0.476562 6.125 -0.21875 C 5.476562 0.03125 4.753906 0.15625 3.953125 0.15625 Z M 6.296875 -4.96875 L 6.3125 -5 C 6.351562 -5.164062 6.375 -5.34375 6.375 -5.53125 C 6.375 -5.875 6.285156 -6.132812 6.109375 -6.3125 C 5.929688 -6.5 5.6875 -6.59375 5.375 -6.59375 C 4.976562 -6.59375 4.640625 -6.445312 4.359375 -6.15625 C 4.078125 -5.875 3.882812 -5.488281 3.78125 -5 L 3.78125 -4.96875 Z M 6.296875 -4.96875 "/></g></g></g><g fill="#7126b5" fill-opacity="1"><g transform="translate(107.231668, 22.358049)"><g><path d="M 4.328125 0 C 2.359375 0 1.375 -0.738281 1.375 -2.21875 C 1.375 -2.507812 1.410156 -2.816406 1.484375 -3.140625 L 2.109375 -6.078125 L 0.875 -6.078125 C 0.757812 -6.078125 0.664062 -6.113281 0.59375 -6.1875 C 0.53125 -6.269531 0.515625 -6.363281 0.546875 -6.46875 L 0.828125 -7.828125 C 0.847656 -7.929688 0.90625 -8.019531 1 -8.09375 C 1.09375 -8.175781 1.195312 -8.21875 1.3125 -8.21875 L 2.5625 -8.21875 L 3.109375 -10.828125 C 3.128906 -10.941406 3.1875 -11.035156 3.28125 -11.109375 C 3.382812 -11.191406 3.488281 -11.234375 3.59375 -11.234375 L 5.53125 -11.234375 C 5.644531 -11.234375 5.726562 -11.191406 5.78125 -11.109375 C 5.84375 -11.023438 5.863281 -10.929688 5.84375 -10.828125 L 5.296875 -8.21875 L 7.28125 -8.21875 C 7.394531 -8.21875 7.476562 -8.179688 7.53125 -8.109375 C 7.59375 -8.035156 7.613281 -7.941406 7.59375 -7.828125 L 7.3125 -6.46875 C 7.289062 -6.351562 7.226562 -6.257812 7.125 -6.1875 C 7.03125 -6.113281 6.929688 -6.078125 6.828125 -6.078125 L 4.84375 -6.078125 L 4.265625 -3.390625 C 4.222656 -3.203125 4.203125 -3.019531 4.203125 -2.84375 C 4.203125 -2.644531 4.25 -2.5 4.34375 -2.40625 C 4.445312 -2.3125 4.625 -2.265625 4.875 -2.265625 L 6.15625 -2.265625 C 6.269531 -2.265625 6.351562 -2.222656 6.40625 -2.140625 C 6.46875 -2.066406 6.488281 -1.96875 6.46875 -1.84375 L 6.15625 -0.390625 C 6.132812 -0.273438 6.070312 -0.179688 5.96875 -0.109375 C 5.875 -0.0351562 5.773438 0 5.671875 0 Z M 4.328125 0 "/></g></g></g><g fill="#a06ece" fill-opacity="1"><g transform="translate(38.882451, 32.936435)"><g><path d="M 0.328125 0 C 0.273438 0 0.238281 -0.015625 0.21875 -0.046875 C 0.195312 -0.078125 0.191406 -0.113281 0.203125 -0.15625 L 1.15625 -4.671875 C 1.164062 -4.722656 1.1875 -4.765625 1.21875 -4.796875 C 1.257812 -4.828125 1.300781 -4.84375 1.34375 -4.84375 L 3.21875 -4.84375 C 3.539062 -4.84375 3.800781 -4.785156 4 -4.671875 C 4.207031 -4.554688 4.347656 -4.398438 4.421875 -4.203125 C 4.503906 -4.015625 4.519531 -3.800781 4.46875 -3.5625 C 4.425781 -3.363281 4.359375 -3.195312 4.265625 -3.0625 C 4.171875 -2.925781 4.070312 -2.816406 3.96875 -2.734375 C 3.863281 -2.648438 3.757812 -2.585938 3.65625 -2.546875 C 3.8125 -2.441406 3.941406 -2.296875 4.046875 -2.109375 C 4.148438 -1.921875 4.171875 -1.679688 4.109375 -1.390625 C 4.054688 -1.140625 3.957031 -0.90625 3.8125 -0.6875 C 3.675781 -0.476562 3.484375 -0.3125 3.234375 -0.1875 C 2.984375 -0.0625 2.675781 0 2.3125 0 Z M 0.96875 -0.5625 L 2.296875 -0.5625 C 2.585938 -0.5625 2.832031 -0.640625 3.03125 -0.796875 C 3.238281 -0.960938 3.367188 -1.160156 3.421875 -1.390625 C 3.472656 -1.640625 3.441406 -1.84375 3.328125 -2 C 3.222656 -2.164062 3.003906 -2.25 2.671875 -2.25 L 1.328125 -2.25 Z M 1.4375 -2.796875 L 2.6875 -2.796875 C 2.96875 -2.796875 3.207031 -2.863281 3.40625 -3 C 3.601562 -3.132812 3.722656 -3.320312 3.765625 -3.5625 C 3.828125 -3.789062 3.800781 -3.96875 3.6875 -4.09375 C 3.570312 -4.21875 3.375 -4.28125 3.09375 -4.28125 L 1.765625 -4.28125 Z M 1.4375 -2.796875 "/></g></g></g><g fill="#a06ece" fill-opacity="1"><g transform="translate(43.664504, 32.936435)"><g><path d="M 1.578125 0.0625 C 1.234375 0.0625 0.953125 0 0.734375 -0.125 C 0.523438 -0.257812 0.375 -0.445312 0.28125 -0.6875 C 0.195312 -0.925781 0.179688 -1.195312 0.234375 -1.5 C 0.242188 -1.582031 0.257812 -1.679688 0.28125 -1.796875 C 0.3125 -1.921875 0.335938 -2.019531 0.359375 -2.09375 C 0.441406 -2.40625 0.5625 -2.675781 0.71875 -2.90625 C 0.882812 -3.144531 1.097656 -3.332031 1.359375 -3.46875 C 1.617188 -3.601562 1.921875 -3.671875 2.265625 -3.671875 C 2.609375 -3.671875 2.890625 -3.601562 3.109375 -3.46875 C 3.328125 -3.332031 3.476562 -3.144531 3.5625 -2.90625 C 3.65625 -2.675781 3.671875 -2.40625 3.609375 -2.09375 C 3.597656 -2.019531 3.578125 -1.921875 3.546875 -1.796875 C 3.523438 -1.679688 3.503906 -1.582031 3.484375 -1.5 C 3.410156 -1.195312 3.289062 -0.925781 3.125 -0.6875 C 2.957031 -0.445312 2.742188 -0.257812 2.484375 -0.125 C 2.234375 0 1.929688 0.0625 1.578125 0.0625 Z M 1.59375 -0.46875 C 1.882812 -0.46875 2.140625 -0.554688 2.359375 -0.734375 C 2.585938 -0.921875 2.742188 -1.1875 2.828125 -1.53125 C 2.847656 -1.601562 2.867188 -1.691406 2.890625 -1.796875 C 2.910156 -1.898438 2.929688 -1.988281 2.953125 -2.0625 C 3.003906 -2.414062 2.96875 -2.679688 2.84375 -2.859375 C 2.726562 -3.046875 2.53125 -3.140625 2.25 -3.140625 C 1.957031 -3.140625 1.703125 -3.046875 1.484375 -2.859375 C 1.265625 -2.679688 1.109375 -2.414062 1.015625 -2.0625 C 0.992188 -1.988281 0.972656 -1.898438 0.953125 -1.796875 C 0.929688 -1.691406 0.914062 -1.601562 0.90625 -1.53125 C 0.84375 -1.1875 0.867188 -0.921875 0.984375 -0.734375 C 1.097656 -0.554688 1.300781 -0.46875 1.59375 -0.46875 Z M 1.59375 -0.46875 "/></g></g></g><g fill="#a06ece" fill-opacity="1"><g transform="translate(47.761423, 32.936435)"><g><path d="M 1.578125 0.0625 C 1.234375 0.0625 0.953125 0 0.734375 -0.125 C 0.523438 -0.257812 0.375 -0.445312 0.28125 -0.6875 C 0.195312 -0.925781 0.179688 -1.195312 0.234375 -1.5 C 0.242188 -1.582031 0.257812 -1.679688 0.28125 -1.796875 C 0.3125 -1.921875 0.335938 -2.019531 0.359375 -2.09375 C 0.441406 -2.40625 0.5625 -2.675781 0.71875 -2.90625 C 0.882812 -3.144531 1.097656 -3.332031 1.359375 -3.46875 C 1.617188 -3.601562 1.921875 -3.671875 2.265625 -3.671875 C 2.609375 -3.671875 2.890625 -3.601562 3.109375 -3.46875 C 3.328125 -3.332031 3.476562 -3.144531 3.5625 -2.90625 C 3.65625 -2.675781 3.671875 -2.40625 3.609375 -2.09375 C 3.597656 -2.019531 3.578125 -1.921875 3.546875 -1.796875 C 3.523438 -1.679688 3.503906 -1.582031 3.484375 -1.5 C 3.410156 -1.195312 3.289062 -0.925781 3.125 -0.6875 C 2.957031 -0.445312 2.742188 -0.257812 2.484375 -0.125 C 2.234375 0 1.929688 0.0625 1.578125 0.0625 Z M 1.59375 -0.46875 C 1.882812 -0.46875 2.140625 -0.554688 2.359375 -0.734375 C 2.585938 -0.921875 2.742188 -1.1875 2.828125 -1.53125 C 2.847656 -1.601562 2.867188 -1.691406 2.890625 -1.796875 C 2.910156 -1.898438 2.929688 -1.988281 2.953125 -2.0625 C 3.003906 -2.414062 2.96875 -2.679688 2.84375 -2.859375 C 2.726562 -3.046875 2.53125 -3.140625 2.25 -3.140625 C 1.957031 -3.140625 1.703125 -3.046875 1.484375 -2.859375 C 1.265625 -2.679688 1.109375 -2.414062 1.015625 -2.0625 C 0.992188 -1.988281 0.972656 -1.898438 0.953125 -1.796875 C 0.929688 -1.691406 0.914062 -1.601562 0.90625 -1.53125 C 0.84375 -1.1875 0.867188 -0.921875 0.984375 -0.734375 C 1.097656 -0.554688 1.300781 -0.46875 1.59375 -0.46875 Z M 1.59375 -0.46875 "/></g></g></g><g fill="#a06ece" fill-opacity="1"><g transform="translate(51.858342, 32.936435)"><g><path d="M 0.25 0 C 0.195312 0 0.15625 -0.015625 0.125 -0.046875 C 0.101562 -0.078125 0.0976562 -0.113281 0.109375 -0.15625 L 1.09375 -4.75 C 1.101562 -4.800781 1.125 -4.84375 1.15625 -4.875 C 1.195312 -4.90625 1.238281 -4.921875 1.28125 -4.921875 L 1.609375 -4.921875 C 1.648438 -4.921875 1.679688 -4.90625 1.703125 -4.875 C 1.734375 -4.84375 1.742188 -4.800781 1.734375 -4.75 L 1.234375 -2.375 L 2.78125 -3.484375 C 2.84375 -3.523438 2.890625 -3.550781 2.921875 -3.5625 C 2.960938 -3.582031 3.019531 -3.59375 3.09375 -3.59375 L 3.515625 -3.59375 C 3.578125 -3.59375 3.613281 -3.5625 3.625 -3.5 C 3.632812 -3.4375 3.597656 -3.378906 3.515625 -3.328125 L 1.640625 -1.96875 L 3.046875 -0.25 C 3.097656 -0.195312 3.109375 -0.140625 3.078125 -0.078125 C 3.046875 -0.0234375 3 0 2.9375 0 L 2.59375 0 C 2.519531 0 2.46875 -0.0078125 2.4375 -0.03125 C 2.414062 -0.0625 2.394531 -0.0859375 2.375 -0.109375 L 1.078125 -1.65625 L 0.75 -0.15625 C 0.738281 -0.113281 0.71875 -0.078125 0.6875 -0.046875 C 0.65625 -0.015625 0.613281 0 0.5625 0 Z M 0.25 0 "/></g></g></g><g fill="#a06ece" fill-opacity="1"><g transform="translate(55.567719, 32.936435)"><g/></g></g><g fill="#a06ece" fill-opacity="1"><g transform="translate(57.436245, 32.936435)"><g><path d="M 0.328125 0 C 0.273438 0 0.238281 -0.015625 0.21875 -0.046875 C 0.195312 -0.078125 0.191406 -0.113281 0.203125 -0.15625 L 1.15625 -4.671875 C 1.164062 -4.722656 1.1875 -4.765625 1.21875 -4.796875 C 1.257812 -4.828125 1.300781 -4.84375 1.34375 -4.84375 L 4.1875 -4.84375 C 4.226562 -4.84375 4.257812 -4.828125 4.28125 -4.796875 C 4.300781 -4.765625 4.3125 -4.722656 4.3125 -4.671875 L 4.25 -4.40625 C 4.238281 -4.351562 4.210938 -4.3125 4.171875 -4.28125 C 4.140625 -4.257812 4.101562 -4.25 4.0625 -4.25 L 1.75 -4.25 L 1.390625 -2.625 L 3.578125 -2.625 C 3.617188 -2.625 3.648438 -2.609375 3.671875 -2.578125 C 3.691406 -2.554688 3.703125 -2.519531 3.703125 -2.46875 L 3.640625 -2.1875 C 3.640625 -2.144531 3.617188 -2.109375 3.578125 -2.078125 C 3.535156 -2.046875 3.492188 -2.03125 3.453125 -2.03125 L 1.28125 -2.03125 L 0.875 -0.15625 C 0.863281 -0.113281 0.835938 -0.078125 0.796875 -0.046875 C 0.765625 -0.015625 0.722656 0 0.671875 0 Z M 0.328125 0 "/></g></g></g><g fill="#a06ece" fill-opacity="1"><g transform="translate(61.636976, 32.936435)"><g><path d="M 1.40625 0.0625 C 1.15625 0.0625 0.945312 0.0195312 0.78125 -0.0625 C 0.613281 -0.15625 0.484375 -0.28125 0.390625 -0.4375 C 0.304688 -0.59375 0.253906 -0.769531 0.234375 -0.96875 C 0.210938 -1.164062 0.21875 -1.375 0.25 -1.59375 C 0.257812 -1.664062 0.269531 -1.734375 0.28125 -1.796875 C 0.300781 -1.859375 0.320312 -1.925781 0.34375 -2 C 0.394531 -2.21875 0.46875 -2.425781 0.5625 -2.625 C 0.65625 -2.820312 0.769531 -3 0.90625 -3.15625 C 1.050781 -3.320312 1.222656 -3.445312 1.421875 -3.53125 C 1.617188 -3.625 1.851562 -3.671875 2.125 -3.671875 C 2.414062 -3.671875 2.632812 -3.617188 2.78125 -3.515625 C 2.9375 -3.421875 3.054688 -3.300781 3.140625 -3.15625 L 3.203125 -3.4375 C 3.210938 -3.488281 3.234375 -3.523438 3.265625 -3.546875 C 3.296875 -3.578125 3.335938 -3.59375 3.390625 -3.59375 L 3.703125 -3.59375 C 3.742188 -3.59375 3.773438 -3.578125 3.796875 -3.546875 C 3.828125 -3.523438 3.835938 -3.488281 3.828125 -3.4375 L 3.140625 -0.15625 C 3.128906 -0.113281 3.101562 -0.078125 3.0625 -0.046875 C 3.03125 -0.015625 2.992188 0 2.953125 0 L 2.625 0 C 2.582031 0 2.546875 -0.015625 2.515625 -0.046875 C 2.492188 -0.078125 2.488281 -0.113281 2.5 -0.15625 L 2.5625 -0.453125 C 2.425781 -0.304688 2.269531 -0.179688 2.09375 -0.078125 C 1.925781 0.015625 1.695312 0.0625 1.40625 0.0625 Z M 1.546875 -0.484375 C 1.773438 -0.484375 1.972656 -0.535156 2.140625 -0.640625 C 2.316406 -0.753906 2.457031 -0.890625 2.5625 -1.046875 C 2.664062 -1.210938 2.738281 -1.382812 2.78125 -1.5625 C 2.800781 -1.632812 2.820312 -1.722656 2.84375 -1.828125 C 2.863281 -1.929688 2.878906 -2.019531 2.890625 -2.09375 C 2.929688 -2.25 2.9375 -2.40625 2.90625 -2.5625 C 2.875 -2.71875 2.800781 -2.847656 2.6875 -2.953125 C 2.570312 -3.054688 2.40625 -3.109375 2.1875 -3.109375 C 1.96875 -3.109375 1.78125 -3.054688 1.625 -2.953125 C 1.46875 -2.847656 1.335938 -2.710938 1.234375 -2.546875 C 1.140625 -2.378906 1.0625 -2.195312 1 -2 C 0.976562 -1.925781 0.960938 -1.859375 0.953125 -1.796875 C 0.941406 -1.734375 0.929688 -1.664062 0.921875 -1.59375 C 0.890625 -1.40625 0.878906 -1.222656 0.890625 -1.046875 C 0.910156 -0.878906 0.96875 -0.742188 1.0625 -0.640625 C 1.164062 -0.535156 1.328125 -0.484375 1.546875 -0.484375 Z M 1.546875 -0.484375 "/></g></g></g><g fill="#a06ece" fill-opacity="1"><g transform="translate(65.83078, 32.936435)"><g><path d="M 1.40625 0.0625 C 1.144531 0.0625 0.925781 0.03125 0.75 -0.03125 C 0.582031 -0.09375 0.453125 -0.171875 0.359375 -0.265625 C 0.265625 -0.359375 0.195312 -0.445312 0.15625 -0.53125 C 0.125 -0.625 0.113281 -0.703125 0.125 -0.765625 C 0.125 -0.816406 0.144531 -0.851562 0.1875 -0.875 C 0.226562 -0.90625 0.265625 -0.921875 0.296875 -0.921875 L 0.609375 -0.921875 C 0.640625 -0.921875 0.660156 -0.914062 0.671875 -0.90625 C 0.691406 -0.90625 0.710938 -0.882812 0.734375 -0.84375 C 0.773438 -0.78125 0.820312 -0.71875 0.875 -0.65625 C 0.9375 -0.59375 1.019531 -0.539062 1.125 -0.5 C 1.226562 -0.457031 1.359375 -0.4375 1.515625 -0.4375 C 1.753906 -0.4375 1.957031 -0.476562 2.125 -0.5625 C 2.300781 -0.65625 2.40625 -0.789062 2.4375 -0.96875 C 2.46875 -1.082031 2.457031 -1.171875 2.40625 -1.234375 C 2.351562 -1.304688 2.253906 -1.367188 2.109375 -1.421875 C 1.960938 -1.484375 1.757812 -1.546875 1.5 -1.609375 C 1.226562 -1.671875 1.019531 -1.75 0.875 -1.84375 C 0.738281 -1.9375 0.648438 -2.046875 0.609375 -2.171875 C 0.578125 -2.304688 0.578125 -2.457031 0.609375 -2.625 C 0.648438 -2.800781 0.734375 -2.96875 0.859375 -3.125 C 0.992188 -3.28125 1.171875 -3.410156 1.390625 -3.515625 C 1.609375 -3.617188 1.867188 -3.671875 2.171875 -3.671875 C 2.410156 -3.671875 2.609375 -3.640625 2.765625 -3.578125 C 2.921875 -3.515625 3.046875 -3.4375 3.140625 -3.34375 C 3.234375 -3.257812 3.296875 -3.171875 3.328125 -3.078125 C 3.367188 -2.992188 3.382812 -2.921875 3.375 -2.859375 C 3.363281 -2.816406 3.335938 -2.78125 3.296875 -2.75 C 3.265625 -2.71875 3.226562 -2.703125 3.1875 -2.703125 L 2.90625 -2.703125 C 2.875 -2.703125 2.847656 -2.707031 2.828125 -2.71875 C 2.804688 -2.738281 2.789062 -2.757812 2.78125 -2.78125 C 2.738281 -2.832031 2.691406 -2.890625 2.640625 -2.953125 C 2.597656 -3.015625 2.53125 -3.0625 2.4375 -3.09375 C 2.351562 -3.132812 2.226562 -3.15625 2.0625 -3.15625 C 1.832031 -3.15625 1.648438 -3.109375 1.515625 -3.015625 C 1.378906 -2.921875 1.296875 -2.800781 1.265625 -2.65625 C 1.242188 -2.5625 1.25 -2.476562 1.28125 -2.40625 C 1.3125 -2.34375 1.394531 -2.28125 1.53125 -2.21875 C 1.664062 -2.164062 1.863281 -2.109375 2.125 -2.046875 C 2.414062 -1.984375 2.640625 -1.898438 2.796875 -1.796875 C 2.953125 -1.703125 3.050781 -1.585938 3.09375 -1.453125 C 3.144531 -1.316406 3.148438 -1.160156 3.109375 -0.984375 C 3.078125 -0.796875 2.984375 -0.617188 2.828125 -0.453125 C 2.679688 -0.296875 2.488281 -0.171875 2.25 -0.078125 C 2.007812 0.015625 1.726562 0.0625 1.40625 0.0625 Z M 1.40625 0.0625 "/></g></g></g><g fill="#a06ece" fill-opacity="1"><g transform="translate(69.49863, 32.936435)"><g><path d="M 1.515625 0 C 1.210938 0 0.984375 -0.046875 0.828125 -0.140625 C 0.679688 -0.242188 0.597656 -0.382812 0.578125 -0.5625 C 0.554688 -0.75 0.566406 -0.96875 0.609375 -1.21875 L 1 -3.046875 L 0.46875 -3.046875 C 0.414062 -3.046875 0.378906 -3.0625 0.359375 -3.09375 C 0.335938 -3.125 0.332031 -3.160156 0.34375 -3.203125 L 0.390625 -3.4375 C 0.398438 -3.488281 0.421875 -3.523438 0.453125 -3.546875 C 0.492188 -3.578125 0.535156 -3.59375 0.578125 -3.59375 L 1.125 -3.59375 L 1.375 -4.75 C 1.382812 -4.800781 1.40625 -4.84375 1.4375 -4.875 C 1.46875 -4.90625 1.507812 -4.921875 1.5625 -4.921875 L 1.875 -4.921875 C 1.925781 -4.921875 1.960938 -4.90625 1.984375 -4.875 C 2.003906 -4.84375 2.007812 -4.800781 2 -4.75 L 1.765625 -3.59375 L 2.625 -3.59375 C 2.664062 -3.59375 2.695312 -3.578125 2.71875 -3.546875 C 2.75 -3.523438 2.757812 -3.488281 2.75 -3.4375 L 2.703125 -3.203125 C 2.691406 -3.160156 2.664062 -3.125 2.625 -3.09375 C 2.59375 -3.0625 2.550781 -3.046875 2.5 -3.046875 L 1.640625 -3.046875 L 1.265625 -1.265625 C 1.234375 -1.117188 1.210938 -0.992188 1.203125 -0.890625 C 1.203125 -0.785156 1.226562 -0.703125 1.28125 -0.640625 C 1.332031 -0.585938 1.4375 -0.5625 1.59375 -0.5625 L 2.046875 -0.5625 C 2.097656 -0.5625 2.132812 -0.546875 2.15625 -0.515625 C 2.175781 -0.492188 2.179688 -0.457031 2.171875 -0.40625 L 2.125 -0.15625 C 2.113281 -0.113281 2.085938 -0.078125 2.046875 -0.046875 C 2.015625 -0.015625 1.976562 0 1.9375 0 Z M 1.515625 0 "/></g></g></g><g fill="#a06ece" fill-opacity="1"><g transform="translate(72.294501, 32.936435)"><g><path d="M 0.234375 -0.609375 C 0.253906 -0.671875 0.28125 -0.71875 0.3125 -0.75 C 0.351562 -0.789062 0.40625 -0.8125 0.46875 -0.8125 L 0.9375 -0.8125 C 0.976562 -0.8125 1.003906 -0.796875 1.015625 -0.765625 C 1.035156 -0.742188 1.035156 -0.710938 1.015625 -0.671875 L 0.421875 0.359375 C 0.390625 0.398438 0.359375 0.4375 0.328125 0.46875 C 0.296875 0.5 0.25 0.515625 0.1875 0.515625 L -0.0625 0.515625 C -0.09375 0.515625 -0.113281 0.5 -0.125 0.46875 C -0.144531 0.4375 -0.144531 0.398438 -0.125 0.359375 Z M 0.234375 -0.609375 "/></g></g></g><g fill="#a06ece" fill-opacity="1"><g transform="translate(74.176868, 32.936435)"><g/></g></g><g fill="#a06ece" fill-opacity="1"><g transform="translate(76.045394, 32.936435)"><g><path d="M 0.328125 0 C 0.273438 0 0.238281 -0.015625 0.21875 -0.046875 C 0.195312 -0.078125 0.191406 -0.113281 0.203125 -0.15625 L 1.15625 -4.671875 C 1.164062 -4.722656 1.1875 -4.765625 1.21875 -4.796875 C 1.257812 -4.828125 1.300781 -4.84375 1.34375 -4.84375 L 4.1875 -4.84375 C 4.226562 -4.84375 4.257812 -4.828125 4.28125 -4.796875 C 4.300781 -4.765625 4.3125 -4.722656 4.3125 -4.671875 L 4.25 -4.40625 C 4.238281 -4.351562 4.210938 -4.3125 4.171875 -4.28125 C 4.140625 -4.257812 4.101562 -4.25 4.0625 -4.25 L 1.75 -4.25 L 1.390625 -2.625 L 3.578125 -2.625 C 3.617188 -2.625 3.648438 -2.609375 3.671875 -2.578125 C 3.691406 -2.554688 3.703125 -2.519531 3.703125 -2.46875 L 3.640625 -2.1875 C 3.640625 -2.144531 3.617188 -2.109375 3.578125 -2.078125 C 3.535156 -2.046875 3.492188 -2.03125 3.453125 -2.03125 L 1.28125 -2.03125 L 0.875 -0.15625 C 0.863281 -0.113281 0.835938 -0.078125 0.796875 -0.046875 C 0.765625 -0.015625 0.722656 0 0.671875 0 Z M 0.328125 0 "/></g></g></g><g fill="#a06ece" fill-opacity="1"><g transform="translate(80.246123, 32.936435)"><g><path d="M 0.25 0 C 0.195312 0 0.15625 -0.015625 0.125 -0.046875 C 0.101562 -0.078125 0.0976562 -0.113281 0.109375 -0.15625 L 1.09375 -4.75 C 1.101562 -4.800781 1.125 -4.84375 1.15625 -4.875 C 1.195312 -4.90625 1.238281 -4.921875 1.28125 -4.921875 L 1.609375 -4.921875 C 1.660156 -4.921875 1.695312 -4.90625 1.71875 -4.875 C 1.738281 -4.84375 1.742188 -4.800781 1.734375 -4.75 L 0.765625 -0.15625 C 0.753906 -0.113281 0.726562 -0.078125 0.6875 -0.046875 C 0.65625 -0.015625 0.617188 0 0.578125 0 Z M 0.25 0 "/></g></g></g><g fill="#a06ece" fill-opacity="1"><g transform="translate(82.073129, 32.936435)"><g><path d="M 0.421875 1.3125 C 0.359375 1.3125 0.316406 1.285156 0.296875 1.234375 C 0.285156 1.191406 0.300781 1.144531 0.34375 1.09375 L 1.1875 -0.25 L 0.515625 -3.40625 C 0.503906 -3.457031 0.507812 -3.5 0.53125 -3.53125 C 0.550781 -3.570312 0.597656 -3.59375 0.671875 -3.59375 L 0.96875 -3.59375 C 1.019531 -3.59375 1.054688 -3.582031 1.078125 -3.5625 C 1.109375 -3.539062 1.125 -3.515625 1.125 -3.484375 L 1.65625 -0.953125 L 3.28125 -3.484375 C 3.300781 -3.515625 3.328125 -3.539062 3.359375 -3.5625 C 3.390625 -3.582031 3.429688 -3.59375 3.484375 -3.59375 L 3.84375 -3.59375 C 3.882812 -3.59375 3.921875 -3.570312 3.953125 -3.53125 C 3.984375 -3.5 3.976562 -3.457031 3.9375 -3.40625 L 0.96875 1.203125 C 0.945312 1.234375 0.921875 1.257812 0.890625 1.28125 C 0.859375 1.300781 0.816406 1.3125 0.765625 1.3125 Z M 0.421875 1.3125 "/></g></g></g><g fill="#a06ece" fill-opacity="1"><g transform="translate(86.052403, 32.936435)"><g/></g></g><g fill="#a06ece" fill-opacity="1"><g transform="translate(87.920927, 32.936435)"><g><path d="M 0.328125 0 C 0.273438 0 0.238281 -0.015625 0.21875 -0.046875 C 0.195312 -0.078125 0.191406 -0.113281 0.203125 -0.15625 L 1.15625 -4.671875 C 1.164062 -4.722656 1.1875 -4.765625 1.21875 -4.796875 C 1.257812 -4.828125 1.300781 -4.84375 1.34375 -4.84375 L 4.1875 -4.84375 C 4.226562 -4.84375 4.257812 -4.828125 4.28125 -4.796875 C 4.300781 -4.765625 4.3125 -4.722656 4.3125 -4.671875 L 4.25 -4.40625 C 4.238281 -4.351562 4.210938 -4.3125 4.171875 -4.28125 C 4.140625 -4.257812 4.101562 -4.25 4.0625 -4.25 L 1.75 -4.25 L 1.390625 -2.625 L 3.578125 -2.625 C 3.617188 -2.625 3.648438 -2.609375 3.671875 -2.578125 C 3.691406 -2.554688 3.703125 -2.519531 3.703125 -2.46875 L 3.640625 -2.1875 C 3.640625 -2.144531 3.617188 -2.109375 3.578125 -2.078125 C 3.535156 -2.046875 3.492188 -2.03125 3.453125 -2.03125 L 1.28125 -2.03125 L 0.875 -0.15625 C 0.863281 -0.113281 0.835938 -0.078125 0.796875 -0.046875 C 0.765625 -0.015625 0.722656 0 0.671875 0 Z M 0.328125 0 "/></g></g></g><g fill="#a06ece" fill-opacity="1"><g transform="translate(92.121656, 32.936435)"><g><path d="M 1.40625 0.0625 C 1.15625 0.0625 0.945312 0.0195312 0.78125 -0.0625 C 0.613281 -0.15625 0.484375 -0.28125 0.390625 -0.4375 C 0.304688 -0.59375 0.253906 -0.769531 0.234375 -0.96875 C 0.210938 -1.164062 0.21875 -1.375 0.25 -1.59375 C 0.257812 -1.664062 0.269531 -1.734375 0.28125 -1.796875 C 0.300781 -1.859375 0.320312 -1.925781 0.34375 -2 C 0.394531 -2.21875 0.46875 -2.425781 0.5625 -2.625 C 0.65625 -2.820312 0.769531 -3 0.90625 -3.15625 C 1.050781 -3.320312 1.222656 -3.445312 1.421875 -3.53125 C 1.617188 -3.625 1.851562 -3.671875 2.125 -3.671875 C 2.414062 -3.671875 2.632812 -3.617188 2.78125 -3.515625 C 2.9375 -3.421875 3.054688 -3.300781 3.140625 -3.15625 L 3.203125 -3.4375 C 3.210938 -3.488281 3.234375 -3.523438 3.265625 -3.546875 C 3.296875 -3.578125 3.335938 -3.59375 3.390625 -3.59375 L 3.703125 -3.59375 C 3.742188 -3.59375 3.773438 -3.578125 3.796875 -3.546875 C 3.828125 -3.523438 3.835938 -3.488281 3.828125 -3.4375 L 3.140625 -0.15625 C 3.128906 -0.113281 3.101562 -0.078125 3.0625 -0.046875 C 3.03125 -0.015625 2.992188 0 2.953125 0 L 2.625 0 C 2.582031 0 2.546875 -0.015625 2.515625 -0.046875 C 2.492188 -0.078125 2.488281 -0.113281 2.5 -0.15625 L 2.5625 -0.453125 C 2.425781 -0.304688 2.269531 -0.179688 2.09375 -0.078125 C 1.925781 0.015625 1.695312 0.0625 1.40625 0.0625 Z M 1.546875 -0.484375 C 1.773438 -0.484375 1.972656 -0.535156 2.140625 -0.640625 C 2.316406 -0.753906 2.457031 -0.890625 2.5625 -1.046875 C 2.664062 -1.210938 2.738281 -1.382812 2.78125 -1.5625 C 2.800781 -1.632812 2.820312 -1.722656 2.84375 -1.828125 C 2.863281 -1.929688 2.878906 -2.019531 2.890625 -2.09375 C 2.929688 -2.25 2.9375 -2.40625 2.90625 -2.5625 C 2.875 -2.71875 2.800781 -2.847656 2.6875 -2.953125 C 2.570312 -3.054688 2.40625 -3.109375 2.1875 -3.109375 C 1.96875 -3.109375 1.78125 -3.054688 1.625 -2.953125 C 1.46875 -2.847656 1.335938 -2.710938 1.234375 -2.546875 C 1.140625 -2.378906 1.0625 -2.195312 1 -2 C 0.976562 -1.925781 0.960938 -1.859375 0.953125 -1.796875 C 0.941406 -1.734375 0.929688 -1.664062 0.921875 -1.59375 C 0.890625 -1.40625 0.878906 -1.222656 0.890625 -1.046875 C 0.910156 -0.878906 0.96875 -0.742188 1.0625 -0.640625 C 1.164062 -0.535156 1.328125 -0.484375 1.546875 -0.484375 Z M 1.546875 -0.484375 "/></g></g></g><g fill="#a06ece" fill-opacity="1"><g transform="translate(96.31546, 32.936435)"><g><path d="M 1.40625 0.0625 C 1.144531 0.0625 0.925781 0.03125 0.75 -0.03125 C 0.582031 -0.09375 0.453125 -0.171875 0.359375 -0.265625 C 0.265625 -0.359375 0.195312 -0.445312 0.15625 -0.53125 C 0.125 -0.625 0.113281 -0.703125 0.125 -0.765625 C 0.125 -0.816406 0.144531 -0.851562 0.1875 -0.875 C 0.226562 -0.90625 0.265625 -0.921875 0.296875 -0.921875 L 0.609375 -0.921875 C 0.640625 -0.921875 0.660156 -0.914062 0.671875 -0.90625 C 0.691406 -0.90625 0.710938 -0.882812 0.734375 -0.84375 C 0.773438 -0.78125 0.820312 -0.71875 0.875 -0.65625 C 0.9375 -0.59375 1.019531 -0.539062 1.125 -0.5 C 1.226562 -0.457031 1.359375 -0.4375 1.515625 -0.4375 C 1.753906 -0.4375 1.957031 -0.476562 2.125 -0.5625 C 2.300781 -0.65625 2.40625 -0.789062 2.4375 -0.96875 C 2.46875 -1.082031 2.457031 -1.171875 2.40625 -1.234375 C 2.351562 -1.304688 2.253906 -1.367188 2.109375 -1.421875 C 1.960938 -1.484375 1.757812 -1.546875 1.5 -1.609375 C 1.226562 -1.671875 1.019531 -1.75 0.875 -1.84375 C 0.738281 -1.9375 0.648438 -2.046875 0.609375 -2.171875 C 0.578125 -2.304688 0.578125 -2.457031 0.609375 -2.625 C 0.648438 -2.800781 0.734375 -2.96875 0.859375 -3.125 C 0.992188 -3.28125 1.171875 -3.410156 1.390625 -3.515625 C 1.609375 -3.617188 1.867188 -3.671875 2.171875 -3.671875 C 2.410156 -3.671875 2.609375 -3.640625 2.765625 -3.578125 C 2.921875 -3.515625 3.046875 -3.4375 3.140625 -3.34375 C 3.234375 -3.257812 3.296875 -3.171875 3.328125 -3.078125 C 3.367188 -2.992188 3.382812 -2.921875 3.375 -2.859375 C 3.363281 -2.816406 3.335938 -2.78125 3.296875 -2.75 C 3.265625 -2.71875 3.226562 -2.703125 3.1875 -2.703125 L 2.90625 -2.703125 C 2.875 -2.703125 2.847656 -2.707031 2.828125 -2.71875 C 2.804688 -2.738281 2.789062 -2.757812 2.78125 -2.78125 C 2.738281 -2.832031 2.691406 -2.890625 2.640625 -2.953125 C 2.597656 -3.015625 2.53125 -3.0625 2.4375 -3.09375 C 2.351562 -3.132812 2.226562 -3.15625 2.0625 -3.15625 C 1.832031 -3.15625 1.648438 -3.109375 1.515625 -3.015625 C 1.378906 -2.921875 1.296875 -2.800781 1.265625 -2.65625 C 1.242188 -2.5625 1.25 -2.476562 1.28125 -2.40625 C 1.3125 -2.34375 1.394531 -2.28125 1.53125 -2.21875 C 1.664062 -2.164062 1.863281 -2.109375 2.125 -2.046875 C 2.414062 -1.984375 2.640625 -1.898438 2.796875 -1.796875 C 2.953125 -1.703125 3.050781 -1.585938 3.09375 -1.453125 C 3.144531 -1.316406 3.148438 -1.160156 3.109375 -0.984375 C 3.078125 -0.796875 2.984375 -0.617188 2.828125 -0.453125 C 2.679688 -0.296875 2.488281 -0.171875 2.25 -0.078125 C 2.007812 0.015625 1.726562 0.0625 1.40625 0.0625 Z M 1.40625 0.0625 "/></g></g></g><g fill="#a06ece" fill-opacity="1"><g transform="translate(99.98331, 32.936435)"><g><path d="M 1.515625 0 C 1.210938 0 0.984375 -0.046875 0.828125 -0.140625 C 0.679688 -0.242188 0.597656 -0.382812 0.578125 -0.5625 C 0.554688 -0.75 0.566406 -0.96875 0.609375 -1.21875 L 1 -3.046875 L 0.46875 -3.046875 C 0.414062 -3.046875 0.378906 -3.0625 0.359375 -3.09375 C 0.335938 -3.125 0.332031 -3.160156 0.34375 -3.203125 L 0.390625 -3.4375 C 0.398438 -3.488281 0.421875 -3.523438 0.453125 -3.546875 C 0.492188 -3.578125 0.535156 -3.59375 0.578125 -3.59375 L 1.125 -3.59375 L 1.375 -4.75 C 1.382812 -4.800781 1.40625 -4.84375 1.4375 -4.875 C 1.46875 -4.90625 1.507812 -4.921875 1.5625 -4.921875 L 1.875 -4.921875 C 1.925781 -4.921875 1.960938 -4.90625 1.984375 -4.875 C 2.003906 -4.84375 2.007812 -4.800781 2 -4.75 L 1.765625 -3.59375 L 2.625 -3.59375 C 2.664062 -3.59375 2.695312 -3.578125 2.71875 -3.546875 C 2.75 -3.523438 2.757812 -3.488281 2.75 -3.4375 L 2.703125 -3.203125 C 2.691406 -3.160156 2.664062 -3.125 2.625 -3.09375 C 2.59375 -3.0625 2.550781 -3.046875 2.5 -3.046875 L 1.640625 -3.046875 L 1.265625 -1.265625 C 1.234375 -1.117188 1.210938 -0.992188 1.203125 -0.890625 C 1.203125 -0.785156 1.226562 -0.703125 1.28125 -0.640625 C 1.332031 -0.585938 1.4375 -0.5625 1.59375 -0.5625 L 2.046875 -0.5625 C 2.097656 -0.5625 2.132812 -0.546875 2.15625 -0.515625 C 2.175781 -0.492188 2.179688 -0.457031 2.171875 -0.40625 L 2.125 -0.15625 C 2.113281 -0.113281 2.085938 -0.078125 2.046875 -0.046875 C 2.015625 -0.015625 1.976562 0 1.9375 0 Z M 1.515625 0 "/></g></g></g><g fill="#a06ece" fill-opacity="1"><g transform="translate(102.77918, 32.936435)"><g><path d="M 1.59375 0.0625 C 1.28125 0.0625 1.019531 0 0.8125 -0.125 C 0.601562 -0.257812 0.457031 -0.453125 0.375 -0.703125 C 0.300781 -0.953125 0.289062 -1.242188 0.34375 -1.578125 C 0.351562 -1.628906 0.367188 -1.703125 0.390625 -1.796875 C 0.410156 -1.890625 0.425781 -1.96875 0.4375 -2.03125 C 0.53125 -2.363281 0.664062 -2.648438 0.84375 -2.890625 C 1.03125 -3.140625 1.253906 -3.332031 1.515625 -3.46875 C 1.785156 -3.601562 2.078125 -3.671875 2.390625 -3.671875 C 2.742188 -3.671875 3.019531 -3.59375 3.21875 -3.4375 C 3.425781 -3.289062 3.5625 -3.082031 3.625 -2.8125 C 3.695312 -2.539062 3.695312 -2.222656 3.625 -1.859375 L 3.59375 -1.75 C 3.582031 -1.695312 3.554688 -1.65625 3.515625 -1.625 C 3.472656 -1.59375 3.429688 -1.578125 3.390625 -1.578125 L 1 -1.578125 C 1 -1.578125 1 -1.566406 1 -1.546875 C 1 -1.535156 0.992188 -1.523438 0.984375 -1.515625 C 0.960938 -1.328125 0.96875 -1.148438 1 -0.984375 C 1.039062 -0.828125 1.117188 -0.695312 1.234375 -0.59375 C 1.347656 -0.488281 1.503906 -0.4375 1.703125 -0.4375 C 1.867188 -0.4375 2.007812 -0.460938 2.125 -0.515625 C 2.25 -0.566406 2.347656 -0.625 2.421875 -0.6875 C 2.503906 -0.75 2.566406 -0.800781 2.609375 -0.84375 C 2.660156 -0.894531 2.695312 -0.925781 2.71875 -0.9375 C 2.75 -0.945312 2.789062 -0.953125 2.84375 -0.953125 L 3.171875 -0.953125 C 3.210938 -0.953125 3.242188 -0.9375 3.265625 -0.90625 C 3.296875 -0.882812 3.304688 -0.851562 3.296875 -0.8125 C 3.273438 -0.738281 3.21875 -0.648438 3.125 -0.546875 C 3.039062 -0.453125 2.921875 -0.359375 2.765625 -0.265625 C 2.617188 -0.171875 2.445312 -0.09375 2.25 -0.03125 C 2.050781 0.03125 1.832031 0.0625 1.59375 0.0625 Z M 1.109375 -2.0625 L 3 -2.0625 L 3 -2.078125 C 3.050781 -2.285156 3.050781 -2.46875 3 -2.625 C 2.957031 -2.789062 2.875 -2.921875 2.75 -3.015625 C 2.632812 -3.109375 2.476562 -3.15625 2.28125 -3.15625 C 2.082031 -3.15625 1.898438 -3.109375 1.734375 -3.015625 C 1.578125 -2.921875 1.445312 -2.789062 1.34375 -2.625 C 1.238281 -2.46875 1.160156 -2.285156 1.109375 -2.078125 Z M 1.109375 -2.0625 "/></g></g></g><g fill="#a06ece" fill-opacity="1"><g transform="translate(106.779213, 32.936435)"><g><path d="M 0.25 0 C 0.195312 0 0.15625 -0.015625 0.125 -0.046875 C 0.101562 -0.078125 0.0976562 -0.113281 0.109375 -0.15625 L 0.8125 -3.4375 C 0.820312 -3.476562 0.84375 -3.515625 0.875 -3.546875 C 0.914062 -3.578125 0.957031 -3.59375 1 -3.59375 L 1.328125 -3.59375 C 1.367188 -3.59375 1.398438 -3.578125 1.421875 -3.546875 C 1.453125 -3.515625 1.460938 -3.476562 1.453125 -3.4375 L 1.390625 -3.125 C 1.492188 -3.28125 1.632812 -3.394531 1.8125 -3.46875 C 1.988281 -3.550781 2.191406 -3.59375 2.421875 -3.59375 L 2.734375 -3.59375 C 2.773438 -3.59375 2.804688 -3.578125 2.828125 -3.546875 C 2.847656 -3.523438 2.851562 -3.488281 2.84375 -3.4375 L 2.796875 -3.15625 C 2.785156 -3.113281 2.757812 -3.078125 2.71875 -3.046875 C 2.6875 -3.015625 2.644531 -3 2.59375 -3 L 2.1875 -3 C 1.9375 -3 1.722656 -2.925781 1.546875 -2.78125 C 1.367188 -2.632812 1.253906 -2.4375 1.203125 -2.1875 L 0.78125 -0.15625 C 0.769531 -0.113281 0.742188 -0.078125 0.703125 -0.046875 C 0.671875 -0.015625 0.628906 0 0.578125 0 Z M 0.25 0 "/></g></g></g><g clip-path="url(#3b533205ff)"><path fill="#7126b5" d="M 23.90625 10.382812 C 22.847656 11.382812 21.773438 12.371094 20.703125 13.359375 C 19.632812 14.347656 18.5625 15.339844 17.503906 16.335938 C 16.445312 17.332031 15.394531 18.339844 14.359375 19.359375 L 13.589844 20.125 L 12.820312 20.90625 L 12.0625 21.6875 C 11.816406 21.945312 11.566406 22.210938 11.324219 22.472656 C 10.832031 23.003906 10.355469 23.539062 9.886719 24.09375 C 9.421875 24.640625 8.96875 25.199219 8.53125 25.765625 C 7.65625 26.90625 6.835938 28.082031 6.101562 29.304688 C 5.738281 29.917969 5.394531 30.539062 5.082031 31.175781 C 4.773438 31.808594 4.496094 32.453125 4.28125 33.109375 C 4.171875 33.433594 4.078125 33.765625 4.003906 34.089844 C 3.933594 34.417969 3.878906 34.746094 3.859375 35.0625 C 3.847656 35.222656 3.847656 35.375 3.855469 35.527344 C 3.863281 35.679688 3.882812 35.824219 3.910156 35.964844 C 3.964844 36.242188 4.070312 36.480469 4.21875 36.667969 C 4.363281 36.859375 4.554688 37.003906 4.796875 37.101562 C 5.035156 37.199219 5.324219 37.25 5.625 37.265625 C 5.777344 37.269531 5.933594 37.269531 6.09375 37.257812 C 6.171875 37.253906 6.253906 37.246094 6.335938 37.238281 C 6.414062 37.226562 6.496094 37.21875 6.578125 37.203125 C 6.90625 37.152344 7.230469 37.074219 7.5625 36.980469 C 8.21875 36.796875 8.867188 36.539062 9.507812 36.246094 C 10.148438 35.953125 10.769531 35.621094 11.390625 35.269531 C 12.007812 34.917969 12.613281 34.539062 13.203125 34.140625 C 13.796875 33.738281 14.382812 33.328125 14.957031 32.894531 L 15.171875 32.734375 L 15.382812 32.566406 C 15.523438 32.457031 15.667969 32.347656 15.808594 32.238281 C 16.089844 32.011719 16.375 31.789062 16.648438 31.554688 C 17.203125 31.101562 17.746094 30.625 18.28125 30.144531 C 18.550781 29.898438 18.816406 29.660156 19.074219 29.410156 C 19.203125 29.289062 19.339844 29.160156 19.46875 29.039062 L 19.855469 28.660156 C 20.371094 28.152344 20.871094 27.636719 21.367188 27.113281 C 21.863281 26.585938 22.34375 26.046875 22.8125 25.496094 C 23.285156 24.949219 23.742188 24.386719 24.183594 23.8125 C 24.621094 23.242188 25.050781 22.65625 25.457031 22.0625 C 25.863281 21.464844 26.246094 20.847656 26.609375 20.222656 C 26.96875 19.597656 27.296875 18.953125 27.582031 18.285156 C 27.871094 17.617188 28.105469 16.933594 28.25 16.21875 C 28.183594 16.945312 28.011719 17.664062 27.78125 18.359375 L 27.691406 18.617188 C 27.660156 18.703125 27.628906 18.792969 27.597656 18.878906 C 27.535156 19.050781 27.464844 19.222656 27.398438 19.394531 C 27.257812 19.734375 27.109375 20.070312 26.953125 20.402344 C 26.324219 21.730469 25.5625 23 24.742188 24.214844 C 24.328125 24.820312 23.894531 25.417969 23.449219 26.003906 C 23 26.589844 22.535156 27.160156 22.058594 27.71875 C 21.105469 28.84375 20.09375 29.914062 19.039062 30.945312 C 17.976562 31.972656 16.878906 32.953125 15.714844 33.871094 C 15.136719 34.335938 14.542969 34.777344 13.929688 35.203125 C 13.324219 35.628906 12.699219 36.03125 12.058594 36.417969 L 11.820312 36.5625 L 11.574219 36.699219 C 11.410156 36.792969 11.25 36.882812 11.082031 36.96875 C 10.914062 37.054688 10.75 37.148438 10.582031 37.230469 C 10.414062 37.316406 10.242188 37.394531 10.074219 37.476562 C 9.390625 37.800781 8.683594 38.085938 7.941406 38.308594 C 7.570312 38.417969 7.1875 38.507812 6.792969 38.570312 C 6.695312 38.585938 6.59375 38.601562 6.492188 38.613281 C 6.394531 38.621094 6.292969 38.632812 6.191406 38.640625 C 5.984375 38.660156 5.777344 38.660156 5.566406 38.652344 C 5.144531 38.632812 4.699219 38.566406 4.265625 38.386719 C 4.046875 38.296875 3.835938 38.183594 3.640625 38.035156 C 3.445312 37.890625 3.265625 37.710938 3.117188 37.519531 C 2.816406 37.128906 2.640625 36.671875 2.554688 36.238281 C 2.511719 36.019531 2.484375 35.804688 2.476562 35.589844 C 2.46875 35.378906 2.46875 35.167969 2.484375 34.964844 C 2.542969 34.144531 2.738281 33.386719 2.988281 32.660156 C 3.238281 31.933594 3.546875 31.242188 3.882812 30.566406 C 4.222656 29.890625 4.59375 29.242188 4.984375 28.609375 C 5.773438 27.347656 6.644531 26.144531 7.578125 24.996094 C 8.046875 24.421875 8.523438 23.863281 9.019531 23.3125 C 9.519531 22.765625 10.023438 22.230469 10.542969 21.710938 C 10.804688 21.445312 11.066406 21.191406 11.328125 20.933594 L 12.125 20.179688 L 12.929688 19.429688 L 13.742188 18.691406 C 14.832031 17.714844 15.9375 16.757812 17.058594 15.820312 C 18.183594 14.882812 19.316406 13.964844 20.460938 13.058594 C 21.589844 12.160156 22.742188 11.265625 23.90625 10.382812 Z M 23.90625 10.382812 " fill-opacity="1" fill-rule="nonzero"/></g><path fill="#a06ece" d="M 25.820312 18.214844 C 25.769531 18.34375 25.710938 18.476562 25.660156 18.605469 C 25.628906 18.683594 25.59375 18.757812 25.558594 18.832031 C 25.527344 18.910156 25.496094 18.984375 25.460938 19.0625 C 25.390625 19.214844 25.324219 19.367188 25.246094 19.519531 C 24.65625 20.730469 23.9375 21.925781 23.152344 23.078125 C 22.363281 24.230469 21.503906 25.347656 20.589844 26.425781 C 20.136719 26.96875 19.667969 27.496094 19.1875 28.015625 L 18.824219 28.40625 C 18.699219 28.535156 18.578125 28.660156 18.457031 28.789062 C 18.210938 29.042969 17.960938 29.292969 17.710938 29.542969 C 17.207031 30.039062 16.695312 30.53125 16.164062 31.003906 C 15.90625 31.246094 15.636719 31.472656 15.371094 31.707031 C 15.234375 31.824219 15.097656 31.933594 14.964844 32.046875 L 14.761719 32.21875 L 14.558594 32.386719 C 14.011719 32.835938 13.449219 33.265625 12.882812 33.679688 C 12.316406 34.09375 11.730469 34.488281 11.136719 34.855469 L 10.914062 34.996094 L 10.6875 35.128906 C 10.539062 35.21875 10.386719 35.304688 10.238281 35.390625 C 10.085938 35.472656 9.9375 35.5625 9.78125 35.644531 C 9.628906 35.726562 9.476562 35.800781 9.320312 35.878906 C 9.285156 35.898438 9.242188 35.917969 9.207031 35.9375 C 7.460938 34.855469 6 33.347656 4.972656 31.566406 C 4.667969 31.03125 4.394531 30.464844 4.171875 29.882812 C 3.628906 28.496094 3.332031 26.980469 3.332031 25.398438 C 3.332031 18.554688 8.878906 13.007812 15.722656 13.007812 C 17.152344 13.007812 18.523438 13.25 19.800781 13.695312 C 19.902344 13.730469 19.996094 13.765625 20.09375 13.804688 C 22.417969 14.675781 24.402344 16.222656 25.820312 18.214844 Z M 25.820312 18.214844 " fill-opacity="1" fill-rule="nonzero"/><path fill="#7126b5" d="M 28.109375 25.394531 C 28.109375 32.234375 22.5625 37.78125 15.722656 37.78125 C 14.328125 37.78125 12.988281 37.550781 11.738281 37.125 C 11.757812 37.117188 11.769531 37.105469 11.789062 37.101562 L 12.042969 36.964844 L 12.289062 36.828125 C 12.953125 36.460938 13.605469 36.074219 14.234375 35.660156 C 14.867188 35.25 15.488281 34.824219 16.09375 34.378906 L 16.316406 34.210938 L 16.542969 34.042969 C 16.691406 33.925781 16.84375 33.816406 16.992188 33.703125 C 17.285156 33.46875 17.585938 33.242188 17.875 33 C 18.460938 32.53125 19.027344 32.042969 19.585938 31.542969 C 19.863281 31.292969 20.144531 31.042969 20.417969 30.785156 C 20.554688 30.65625 20.691406 30.527344 20.828125 30.398438 L 21.230469 30.011719 C 21.769531 29.488281 22.296875 28.949219 22.8125 28.402344 C 23.839844 27.304688 24.824219 26.160156 25.746094 24.953125 C 26.425781 24.054688 27.078125 23.125 27.679688 22.144531 C 27.960938 23.179688 28.109375 24.269531 28.109375 25.394531 Z M 28.109375 25.394531 " fill-opacity="1" fill-rule="nonzero"/><path fill="#7126b5" d="M 23.90625 10.382812 C 22.636719 11.523438 21.363281 12.65625 20.097656 13.800781 C 20 13.765625 19.90625 13.726562 19.804688 13.691406 C 21.164062 12.582031 22.535156 11.484375 23.90625 10.382812 Z M 23.90625 10.382812 " fill-opacity="1" fill-rule="nonzero"/><g clip-path="url(#54ed71becf)"><path fill="#7126b5" d="M 30.710938 5.710938 C 30.628906 5.785156 30.542969 5.867188 30.445312 5.949219 C 28.898438 7.265625 24.453125 10.226562 24.300781 10.03125 C 24.144531 9.839844 27.992188 6.136719 29.613281 4.914062 C 29.714844 4.835938 29.816406 4.765625 29.902344 4.703125 C 30.132812 4.542969 30.363281 4.453125 30.566406 4.414062 C 30.898438 4.34375 31.160156 4.394531 31.222656 4.464844 C 31.222656 4.464844 31.226562 4.46875 31.226562 4.46875 C 31.226562 4.46875 31.226562 4.472656 31.230469 4.472656 C 31.285156 4.550781 31.277344 4.816406 31.140625 5.125 C 31.050781 5.3125 30.917969 5.523438 30.710938 5.710938 Z M 30.710938 5.710938 " fill-opacity="1" fill-rule="nonzero"/></g><path fill="#7126b5" d="M 25.710938 10.589844 L 24.886719 9.5625 L 25.511719 9.0625 L 25.949219 10.402344 Z M 25.710938 10.589844 " fill-opacity="1" fill-rule="nonzero"/><path fill="#7126b5" d="M 29.75 10.222656 L 28.066406 7.007812 L 29.460938 5.890625 L 30.105469 9.9375 Z M 29.75 10.222656 " fill-opacity="1" fill-rule="nonzero"/><g clip-path="url(#814cc62ec7)"><path fill="#7126b5" d="M 25.292969 4.664062 L 28.066406 7.007812 L 29.460938 5.890625 L 25.644531 4.382812 Z M 25.292969 4.664062 " fill-opacity="1" fill-rule="nonzero"/></g><path fill="#7126b5" d="M 24.058594 8.53125 L 24.886719 9.5625 L 25.511719 9.0625 L 24.296875 8.34375 Z M 24.058594 8.53125 " fill-opacity="1" fill-rule="nonzero"/></svg>