<?xml version="1.0" encoding="UTF-8"?>
<svg version="1.1" xmlns="http://www.w3.org/2000/svg" width="2290" height="1824">
<path d="M0 0 C2.05443118 1.69646211 3.9010518 3.47364191 5.75 5.390625 C6.67425781 6.30134766 6.67425781 6.30134766 7.6171875 7.23046875 C19.69824766 19.90780441 20.30446368 35.00290725 20.0625 51.55078125 C19.45489999 70.00409981 12.73410073 86.60736398 1.75 101.390625 C1.01007813 102.38964844 0.27015625 103.38867188 -0.4921875 104.41796875 C-20.60451783 130.03646164 -54.2122835 143.04690948 -85.71484375 147.09375 C-86.55144531 147.19171875 -87.38804688 147.2896875 -88.25 147.390625 C-88.25257812 147.95265625 -88.25515625 148.5146875 -88.2578125 149.09375 C-89.85822869 183.87612853 -112.71742326 219.45268704 -128.97265625 249.40625 C-129.52920898 250.44346191 -130.08576172 251.48067383 -130.65917969 252.54931641 C-132.25 255.390625 -132.25 255.390625 -133.77050781 257.64990234 C-138.2843941 264.52339302 -137.93287517 271.51341839 -137.875 279.515625 C-137.875 303.640625 -137.875 303.640625 -142.25 312.390625 C-140.41174998 312.35104911 -140.41174998 312.35104911 -138.5363636 312.31067371 C-132.52904039 312.31572052 -126.6311727 312.99144661 -120.66818237 313.66984558 C-119.42138392 313.80768111 -118.17458546 313.94551664 -116.89000523 314.087529 C-113.44546829 314.46845862 -110.00164373 314.8555139 -106.55790734 315.24360502 C-102.830184 315.66259256 -99.10182196 316.0758233 -95.37353516 316.48976135 C-88.8927356 317.21008392 -82.41234636 317.93400696 -75.93221664 318.66032982 C-66.43364519 319.72493846 -56.93442842 320.78369792 -47.43505253 321.84110168 C-31.84967214 323.57609055 -16.26476746 325.31531467 -0.68017578 327.05737305 C30.38783625 330.53015378 61.45679841 333.99440856 92.525913 337.45730984 C101.43286664 338.45010597 110.33976136 339.44342611 119.24652863 340.43789291 C154.51172975 344.37529219 189.77781202 348.30225049 225.05544403 352.12691133 C227.20507678 352.360016 229.35468919 352.59330723 231.50429416 352.8266679 C244.62451226 354.25098846 257.74495645 355.67303449 270.86728668 357.07779264 C275.47705026 357.57216922 280.08637231 358.07057572 284.69560289 358.56989455 C286.77900912 358.79460006 288.86261333 359.01748003 290.94644117 359.23824143 C300.55239677 360.25615938 310.13565392 361.3467848 319.67825317 362.85783386 C320.39443373 362.9662134 321.11061428 363.07459294 321.84849727 363.18625671 C326.57594214 363.97585432 330.49134279 365.26102812 334.75 367.390625 C336.10439668 370.09941835 335.81501451 372.39995768 335.75 375.390625 C336.3889772 375.37032227 337.02795441 375.35001953 337.68629456 375.32910156 C347.6467988 375.16123662 357.44167546 376.16817173 367.33984375 377.140625 C369.21638193 377.32054918 371.09297506 377.49990114 372.96961975 377.67871094 C377.87532148 378.14735386 382.78038679 378.62233217 387.68530273 379.09912109 C395.558715 379.86360465 403.43296537 380.61935714 411.30740547 381.37316895 C414.04908008 381.63670668 416.79041375 381.9035906 419.53172302 382.17089844 C421.21116226 382.33277784 422.89061024 382.4945666 424.57006836 382.65625 C425.32805222 382.73105591 426.08603607 382.80586182 426.86698914 382.88293457 C430.50826235 383.23073345 434.09153483 383.47505868 437.75 383.390625 C438.32947388 381.93716675 438.32947388 381.93716675 438.9206543 380.4543457 C486.21796153 262.00868504 486.21796153 262.00868504 512.64453125 246.26171875 C516.57397084 244.63599514 520.58419443 244.8698993 524.75 245.390625 C529.96241877 247.80378184 532.40737591 251.28398246 534.75 256.390625 C535.55354232 259.05043056 536.02061511 261.70879146 536.4375 264.453125 C536.56141113 265.18611816 536.68532227 265.91911133 536.81298828 266.67431641 C537.77476541 272.6637414 538.10619639 278.56417302 538.1484375 284.6328125 C538.46931857 287.59827237 538.46931857 287.59827237 541.15234375 289.078125 C542.00957031 289.51125 542.86679688 289.944375 543.75 290.390625 C549.01324603 297.90954791 550.05676652 306.07337944 550.0859375 315.0859375 C550.09436172 315.89853027 550.10278595 316.71112305 550.11146545 317.54833984 C550.13117102 320.20430474 550.13114285 322.8595989 550.125 325.515625 C550.12412384 326.44066833 550.12324768 327.36571167 550.12234497 328.31878662 C550.06086477 348.20390917 548.34555246 367.69096493 545.75 387.390625 C545.6335614 388.28315979 545.5171228 389.17569458 545.39715576 390.09527588 C539.8868795 432.15021648 532.43420891 473.94155266 524.02041626 515.50708008 C523.59326392 517.62230112 523.17096805 519.73850923 522.75375366 521.85571289 C522.17793646 524.7629634 521.58077071 527.66494221 520.9765625 530.56640625 C520.81022812 531.42293289 520.64389374 532.27945953 520.47251892 533.16194153 C520.30450272 533.94421616 520.13648651 534.72649078 519.96337891 535.5324707 C519.82477448 536.20961624 519.68617004 536.88676178 519.54336548 537.58442688 C518.39525165 540.19825506 517.25065 540.9886784 514.75 542.390625 C512.00505052 543.1003716 509.42629492 543.63703796 506.63623047 544.05761719 C505.80708067 544.18409008 504.97793087 544.31056297 504.12365532 544.44086838 C492.65435397 546.01227765 481.12175593 545.78206068 469.5703125 545.71875 C467.09837968 545.71568438 464.62644511 545.71381437 462.1545105 545.71307373 C457.0161867 545.70850769 451.87802288 545.69421589 446.73974609 545.671875 C440.15486983 545.6433859 433.5701177 545.63263825 426.98518562 545.6281929 C421.89975754 545.62404117 416.81435441 545.61422907 411.72893906 545.60231781 C409.29924594 545.59662793 406.86955046 545.59186502 404.43985367 545.58805084 C401.05898035 545.58118372 397.6782052 545.56755434 394.29736328 545.55175781 C393.2979068 545.55063995 392.29845032 545.54952209 391.26870728 545.54837036 C390.34690674 545.54266022 389.4251062 545.53695007 388.47537231 545.53106689 C387.67873232 545.52809223 386.88209232 545.52511757 386.06131172 545.52205276 C383.55019825 545.3792637 381.20236421 544.93703754 378.75 544.390625 C378.56207886 545.84299561 378.56207886 545.84299561 378.37036133 547.32470703 C377.89709026 550.93950459 377.39674836 554.550135 376.88842773 558.16015625 C376.67276685 559.71873019 376.46431776 561.27832064 376.26342773 562.83886719 C375.97220393 565.09099791 375.6546386 567.33811389 375.33203125 569.5859375 C375.20668755 570.62223801 375.20668755 570.62223801 375.07881165 571.67947388 C374.2683745 577.04493196 372.443628 579.62595883 368.75 583.390625 C359.99476397 587.76824302 344.79527083 585.67175608 335.02172852 585.91699219 C334.2191709 585.9378334 333.41661329 585.9586746 332.58973575 585.98014736 C326.24888428 586.1442068 319.90774224 586.29350568 313.56640625 586.4375 C312.59989112 586.4596139 311.63337599 586.48172781 310.63757253 586.50451183 C255.0578243 587.76418961 199.47022312 587.69619546 143.87972553 587.64954764 C133.04130282 587.64063008 122.20292388 587.64224627 111.36450195 587.65136719 C24.43102596 587.72249259 -62.45907297 587.05761989 -149.34389687 583.86818027 C-152.44100464 583.75892902 -155.53823771 583.66400264 -158.63598633 583.57495117 C-162.23588926 583.46969667 -165.8225686 583.30199903 -169.41674805 583.07543945 C-176.63842596 582.47352334 -176.63842596 582.47352334 -183.32202148 584.64355469 C-184.95066352 586.61549027 -185.90089424 588.49075631 -186.9375 590.828125 C-187.89220847 592.60373616 -188.85653409 594.37419517 -189.828125 596.140625 C-190.35728516 597.13578125 -190.88644531 598.1309375 -191.43164062 599.15625 C-194.57335018 604.74451104 -198.2128805 609.99619761 -201.81152344 615.29727173 C-204.1777675 618.7896964 -206.5174591 622.29982929 -208.859375 625.80859375 C-209.35626831 626.55215622 -209.85316162 627.29571869 -210.3651123 628.06181335 C-216.60442508 637.40520745 -222.7910834 646.7834145 -228.97488403 656.16360474 C-230.27806302 658.14034921 -231.58166883 660.11681236 -232.88571167 662.09298706 C-234.72051458 664.87374586 -236.55386364 667.65545709 -238.38671875 670.4375 C-238.93575867 671.2694136 -239.48479858 672.10132721 -240.05047607 672.95845032 C-240.81572601 674.12128792 -240.81572601 674.12128792 -241.59643555 675.30761719 C-242.03859909 675.97863464 -242.48076263 676.6496521 -242.93632507 677.34100342 C-243.3698378 678.01737854 -243.80335052 678.69375366 -244.25 679.390625 C-245.06710953 680.51322723 -245.06710953 680.51322723 -245.90072632 681.6585083 C-247.65423106 685.20914421 -247.60097991 688.32315694 -247.49194336 692.1875 C-247.4828595 692.95738754 -247.47377563 693.72727509 -247.4644165 694.52049255 C-247.44411621 696.18801063 -247.41761804 697.85546233 -247.38560295 699.52279663 C-247.33927104 702.17338885 -247.3193909 704.82291625 -247.30799866 707.47387695 C-247.27505348 715.00929956 -247.22849475 722.54344915 -247.08227539 730.07763672 C-246.99461642 734.69415224 -246.96669555 739.30787642 -246.97610664 743.9251709 C-246.9686862 745.67304334 -246.93975164 747.42097668 -246.88773918 749.16809082 C-246.64662862 757.53987884 -246.58523793 764.35843369 -252.26477623 770.94330311 C-254.35261527 773.10066445 -256.51810282 775.13204442 -258.78181267 777.10348129 C-260.68294898 778.77018662 -262.41806671 780.57382258 -264.16333008 782.40161133 C-265.27952406 783.51118706 -266.39822131 784.61825084 -267.51953125 785.72265625 C-268.12963547 786.32897385 -268.73973969 786.93529144 -269.36833191 787.5599823 C-271.26386218 789.44359759 -273.16270184 791.32381509 -275.0625 793.203125 C-284.99968332 802.95435908 -284.99968332 802.95435908 -294.34692383 813.26049805 C-299.20843409 818.70202172 -304.51100882 823.75132428 -309.6875 828.890625 C-310.9084369 830.10653614 -312.12914192 831.32268016 -313.34960938 832.5390625 C-316.31374013 835.49227466 -319.28098958 838.44231898 -322.25 841.390625 C-325.9546046 839.6748644 -328.04687151 837.665431 -330.75 834.578125 C-331.5028125 833.72605469 -332.255625 832.87398437 -333.03125 831.99609375 C-335.15710813 829.49970753 -337.2074863 826.95528707 -339.25 824.390625 C-344.87886308 831.97323863 -350.18003432 839.71505881 -355.3125 847.640625 C-356.04325319 848.76434569 -356.77429692 849.88787748 -357.50561523 851.01123047 C-359.00518379 853.315474 -360.50321505 855.6207052 -362 857.92675781 C-364.92349796 862.42964226 -367.85843845 866.92503984 -370.79272461 871.42089844 C-373.6135529 875.74300885 -376.4318496 880.06676823 -379.25 884.390625 C-370.4573285 888.16224059 -361.55665321 891.55733721 -352.59216309 894.89205933 C-321.58914756 906.45537458 -291.23140209 919.40010618 -261.25 933.390625 C-260.13093262 933.91221191 -259.01186523 934.43379883 -257.85888672 934.97119141 C-232.33439839 946.92304181 -207.38311832 959.82095245 -183.25 974.390625 C-182.32719238 974.94492187 -181.40438477 975.49921875 -180.45361328 976.0703125 C-168.35565164 983.35860192 -156.64467904 991.04535334 -145.25 999.390625 C-144.68458496 999.80296387 -144.11916992 1000.21530273 -143.53662109 1000.64013672 C-136.23683965 1005.9800975 -129.18480595 1011.58669711 -122.25 1017.390625 C-121.72180664 1017.82713379 -121.19361328 1018.26364258 -120.64941406 1018.71337891 C-107.33324394 1029.73245138 -94.71733483 1041.5838979 -84.25 1055.390625 C-83.4765625 1056.37417969 -82.703125 1057.35773438 -81.90625 1058.37109375 C-61.78728094 1084.6348516 -53.34761607 1113.09558652 -56.50195312 1146.02050781 C-61.88018376 1183.16894514 -89.43264622 1224.29832972 -107.921875 1256.5546875 C-110.34268843 1260.78018676 -112.72311941 1265.02661657 -115.078125 1269.2890625 C-115.40474121 1269.87982574 -115.73135742 1270.47058899 -116.06787109 1271.07925415 C-117.64425053 1273.93206305 -119.21752526 1276.78650909 -120.78710938 1279.64306641 C-125.05707837 1287.37142593 -129.53880072 1294.95067179 -134.10974121 1302.50280762 C-135.95355413 1305.55543226 -137.78079063 1308.61792577 -139.609375 1311.6796875 C-147.84323566 1325.44749304 -156.12569942 1339.17929541 -164.62402344 1352.78613281 C-166.35961003 1355.56619854 -168.09008751 1358.34940708 -169.8203125 1361.1328125 C-186.00339813 1387.13336734 -202.60946513 1412.86599705 -219.4375 1438.453125 C-219.93644775 1439.21196991 -220.43539551 1439.97081482 -220.94946289 1440.75265503 C-240.95561554 1471.17384549 -261.26292224 1501.39655004 -281.88525391 1531.40380859 C-283.25238838 1533.39410203 -284.616699 1535.38630613 -285.98046875 1537.37890625 C-292.73407152 1547.23748793 -299.58020084 1557.03011176 -306.44287109 1566.81298828 C-308.2411083 1569.37794213 -310.03700256 1571.94451866 -311.83203125 1574.51171875 C-318.791837 1584.46509218 -325.77500198 1594.40142497 -332.78662109 1604.31835938 C-334.2625684 1606.4084229 -335.73524322 1608.50075589 -337.20703125 1610.59375 C-343.92215981 1620.13798327 -350.72175515 1629.61780289 -357.56933594 1639.06738281 C-359.32372502 1641.49253774 -361.07264783 1643.92155785 -362.8203125 1646.3515625 C-363.40498291 1647.16375244 -363.98965332 1647.97594238 -364.59204102 1648.81274414 C-365.70806354 1650.36332971 -366.82318985 1651.91456085 -367.93725586 1653.46655273 C-375.55872001 1664.044985 -375.55872001 1664.044985 -378.25 1665.390625 C-389.70152106 1666.01870587 -400.90972658 1664.86066044 -412.25 1663.390625 C-412.60384766 1664.58365234 -412.60384766 1664.58365234 -412.96484375 1665.80078125 C-414.58445394 1670.32485957 -416.68989959 1674.52256588 -418.8125 1678.828125 C-425.71177857 1693.09797533 -431.74130032 1707.76402279 -436.3125 1722.953125 C-436.51657471 1723.62504883 -436.72064941 1724.29697266 -436.9309082 1724.98925781 C-437.43780446 1726.77196101 -437.84773391 1728.5814383 -438.25 1730.390625 C-438.47558594 1731.38964844 -438.70117188 1732.38867188 -438.93359375 1733.41796875 C-437.76099011 1738.51711945 -433.43064668 1740.59485694 -429.25 1743.390625 C-428.48816406 1743.91188965 -427.72632813 1744.4331543 -426.94140625 1744.97021484 C-413.07418766 1754.22984264 -398.36294955 1761.42638833 -383.25 1768.390625 C-347.07621219 1785.15130671 -347.07621219 1785.15130671 -340.25 1795.390625 C-339.52659316 1800.27782704 -339.76391272 1804.32123297 -341.8125 1808.828125 C-351.00143836 1818.48829097 -369.81570445 1816.921558 -382.25 1817.390625 C-389.2956675 1817.56284504 -396.34326261 1817.55588254 -403.390625 1817.55859375 C-405.40761334 1817.56182321 -407.42460146 1817.5651884 -409.44158936 1817.56867981 C-413.65719136 1817.57462875 -417.87277301 1817.57652454 -422.08837891 1817.57592773 C-426.32702973 1817.57584716 -430.56557091 1817.58268633 -434.80419922 1817.59643555 C-557.32301648 1817.98765674 -557.32301648 1817.98765674 -573.25 1803.390625 C-578.04081096 1796.0705039 -580.39496077 1789.20543767 -580.59375 1780.5234375 C-580.61210907 1779.74124344 -580.63046814 1778.95904938 -580.64938354 1778.15315247 C-580.98492078 1760.66751447 -580.87955041 1745.4478321 -573.25 1729.390625 C-572.50943359 1727.75552979 -572.50943359 1727.75552979 -571.75390625 1726.08740234 C-564.16106871 1709.34719848 -555.53639267 1693.25344565 -546.25 1677.390625 C-544.94086185 1675.13833718 -543.63228735 1672.88572166 -542.32421875 1670.6328125 C-538.97856693 1664.87810845 -535.61945 1659.13142362 -532.25 1653.390625 C-533.41917969 1653.30425781 -534.58835937 1653.21789063 -535.79296875 1653.12890625 C-537.34125301 1652.98815314 -538.88942493 1652.84616055 -540.4375 1652.703125 C-541.20642578 1652.64962891 -541.97535156 1652.59613281 -542.76757812 1652.54101562 C-547.04425737 1652.11885415 -548.84340159 1651.73344327 -552.23828125 1648.87109375 C-552.90214844 1648.05253906 -553.56601563 1647.23398438 -554.25 1646.390625 C-554.58 1646.060625 -554.91 1645.730625 -555.25 1645.390625 C-556.25672 1636.85539018 -553.25851348 1631.61187435 -549.0625 1624.328125 C-548.09653164 1622.59569643 -547.13058181 1620.86325699 -546.16609192 1619.13000488 C-545.17755203 1617.35945646 -544.18092539 1615.59366926 -543.18261719 1613.82861328 C-540.28600884 1608.6757534 -537.48906364 1603.4705583 -534.6875 1598.265625 C-533.61268697 1596.28086654 -532.53716608 1594.29649124 -531.4609375 1592.3125 C-530.93081055 1591.33474609 -530.40068359 1590.35699219 -529.85449219 1589.34960938 C-528.78483073 1587.37695312 -527.71516927 1585.40429688 -526.64550781 1583.43164062 C-525.03420796 1580.45979641 -523.4232283 1577.48777903 -521.8125 1574.515625 C-521.27947266 1573.53207031 -520.74644531 1572.54851562 -520.19726562 1571.53515625 C-516.18065867 1564.11914005 -512.18211096 1556.69350733 -508.1875 1549.265625 C-503.41816898 1540.39790608 -498.61659628 1531.54867665 -493.78662109 1522.71386719 C-489.33486274 1514.56334032 -484.93213783 1506.38677809 -480.53344727 1498.20751953 C-473.93187748 1485.93384612 -467.28865251 1473.68284479 -460.64550781 1461.43164062 C-459.03420796 1458.45979641 -457.4232283 1455.48777903 -455.8125 1452.515625 C-455.27947266 1451.53207031 -454.74644531 1450.54851562 -454.19726562 1449.53515625 C-450.18065867 1442.11914005 -446.18211096 1434.69350733 -442.1875 1427.265625 C-437.41894501 1418.39934897 -432.61853075 1409.55134974 -427.78881836 1400.71826172 C-423.91380155 1393.62442409 -420.07725762 1386.51032694 -416.25 1379.390625 C-411.94199435 1371.37660576 -407.61497875 1363.37375907 -403.25 1355.390625 C-398.30638595 1346.34809251 -393.41204822 1337.27969712 -388.53125 1328.203125 C-384.6170377 1320.92527091 -380.68922892 1313.65496653 -376.75 1306.390625 C-372.13401265 1297.87614297 -367.53015334 1289.35521735 -362.9375 1280.828125 C-362.38707031 1279.80654297 -361.83664062 1278.78496094 -361.26953125 1277.73242188 C-356.90792624 1269.63006233 -352.57598282 1261.51203899 -348.25 1253.390625 C-371.45625705 1242.66131348 -394.68063214 1231.97327766 -417.93945312 1221.35839844 C-424.48052379 1218.37287061 -431.01939837 1215.3825384 -437.55847168 1212.39263916 C-441.20556091 1210.72511106 -444.85278728 1209.05788298 -448.5 1207.390625 C-449.95833399 1206.72395978 -451.41666733 1206.05729311 -452.875 1205.390625 C-453.596875 1205.060625 -454.31875 1204.730625 -455.0625 1204.390625 C-503.91666667 1182.05729167 -552.77083333 1159.72395833 -601.625 1137.390625 C-602.34672897 1137.0606955 -603.06845795 1136.73076599 -603.8120575 1136.39083862 C-605.27187727 1135.72348488 -606.7316856 1135.05610609 -608.19148254 1134.38870239 C-611.81448033 1132.7323436 -615.43766941 1131.07640604 -619.0612793 1129.42138672 C-625.89637906 1126.29902981 -632.72936131 1123.17224451 -639.55606079 1120.03155518 C-642.78079618 1118.54827996 -646.0065675 1117.06726552 -649.23242188 1115.58642578 C-650.76988858 1114.87987413 -652.30684694 1114.1722151 -653.84326172 1113.46337891 C-655.97365625 1112.48058945 -658.10577317 1111.50163054 -660.23828125 1110.5234375 C-660.861689 1110.234617 -661.48509674 1109.94579651 -662.12739563 1109.64822388 C-665.77240151 1107.98158808 -669.42651464 1106.59090717 -673.25 1105.390625 C-673.80945312 1106.18082031 -674.36890625 1106.97101563 -674.9453125 1107.78515625 C-684.67977024 1121.49493145 -694.59744902 1135.07583163 -704.90234375 1148.36328125 C-706.89451016 1150.93221465 -708.86877656 1153.51380884 -710.83862305 1156.09985352 C-715.56199399 1162.28744119 -720.43118134 1168.34516619 -725.3581543 1174.37158203 C-728.91891266 1178.7323991 -732.41723283 1183.13535775 -735.875 1187.578125 C-740.32252135 1193.28243188 -744.94362228 1198.81676177 -749.640625 1204.31640625 C-752.01269035 1207.09795588 -754.32492712 1209.92411161 -756.625 1212.765625 C-764.54977933 1222.49407275 -772.85546271 1231.91118984 -781.28125 1241.20703125 C-783.08534784 1243.20800485 -784.86007017 1245.2301281 -786.625 1247.265625 C-790.03305835 1251.17858088 -793.53855279 1254.99977899 -797.05322266 1258.81665039 C-800.06355094 1262.08773609 -803.04087083 1265.38546653 -806 1268.703125 C-809.05660036 1272.11324675 -812.20423473 1275.37874587 -815.47447205 1278.58265686 C-817.20631253 1280.34613933 -818.81246811 1282.16855348 -820.41625977 1284.04858398 C-824.41081669 1288.63918651 -828.65766225 1292.9424231 -832.96484375 1297.23828125 C-833.77941544 1298.05380966 -834.59398712 1298.86933807 -835.4332428 1299.70957947 C-837.14559193 1301.42260508 -838.85918842 1303.13438465 -840.57397461 1304.8449707 C-843.18002015 1307.44566052 -845.78068522 1310.05164456 -848.38085938 1312.65820312 C-850.05436699 1314.33104986 -851.72818482 1316.00358634 -853.40234375 1317.67578125 C-854.1702977 1318.44575943 -854.93825165 1319.21573761 -855.72947693 1320.00904846 C-859.84872004 1324.11068761 -864.04543315 1328.05166027 -868.46925354 1331.82395935 C-870.30995084 1333.44336857 -872.03393305 1335.14038491 -873.75 1336.890625 C-876.73872337 1339.92657425 -879.86706479 1342.73571159 -883.09375 1345.515625 C-885.44962958 1347.56421594 -887.7550746 1349.66265502 -890.0625 1351.765625 C-894.38260791 1355.66425897 -898.83071381 1359.36566358 -903.35546875 1363.0234375 C-905.86350497 1365.07454405 -908.33098093 1367.16486832 -910.78710938 1369.27758789 C-918.32854213 1375.75111481 -926.16595686 1381.79393209 -934.10351562 1387.77197266 C-936.18329749 1389.34032499 -938.25634698 1390.91719031 -940.328125 1392.49609375 C-949.44308278 1399.41972036 -958.73891599 1406.02285805 -968.25 1412.390625 C-968.88921387 1412.82165527 -969.52842773 1413.25268555 -970.18701172 1413.69677734 C-1003.35619087 1435.97983357 -1039.12005179 1452.20825965 -1075.64033508 1468.07147217 C-1081.15473465 1470.46955308 -1086.65583542 1472.89524125 -1092.14453125 1475.3515625 C-1092.85553986 1475.66974945 -1093.56654846 1475.9879364 -1094.29910278 1476.31576538 C-1095.73095845 1476.9567385 -1097.16279238 1477.59776017 -1098.59460449 1478.23883057 C-1115.2844012 1485.70561706 -1132.07736745 1492.922502 -1148.89208984 1500.1027832 C-1163.43323477 1506.31413756 -1177.94577448 1512.58876219 -1192.44467163 1518.89807129 C-1210.99030147 1526.96737127 -1229.55655662 1534.96545398 -1248.23583984 1542.72070312 C-1252.82393892 1544.62728855 -1257.40615141 1546.54787214 -1261.98828125 1548.46875 C-1334.78455433 1578.98338129 -1407.71244721 1609.16560463 -1480.93890381 1638.63485718 C-1487.04658322 1641.09443104 -1493.14836542 1643.56788872 -1499.24473572 1646.05535889 C-1502.9594164 1647.56977593 -1506.6770332 1649.07688893 -1510.39523315 1650.5826416 C-1512.10814568 1651.27837873 -1513.81971891 1651.97742399 -1515.52981567 1652.68005371 C-1517.86536921 1653.63925668 -1520.20542814 1654.58654274 -1522.546875 1655.53125 C-1523.21526901 1655.80932495 -1523.88366302 1656.0873999 -1524.5723114 1656.37390137 C-1529.80324614 1658.46240643 -1535.58344659 1660.48148776 -1541 1658.265625 C-1544.06782613 1655.70910322 -1546.45909006 1652.97244487 -1548.25 1649.390625 C-1552.3643381 1650.0679239 -1555.99251954 1651.35683139 -1559.86328125 1652.89453125 C-1560.47769577 1653.1372728 -1561.09211029 1653.38001434 -1561.72514343 1653.63011169 C-1563.67251559 1654.4005155 -1565.61751397 1655.17671951 -1567.5625 1655.953125 C-1568.88851895 1656.47890147 -1570.21468936 1657.00429613 -1571.54101562 1657.52929688 C-1574.77910808 1658.8119929 -1578.01509885 1660.09989849 -1581.25 1661.390625 C-1580.58886314 1670.40894504 -1578.36140393 1679.06462616 -1576.25 1687.828125 C-1576.05092041 1688.66053711 -1575.85184082 1689.49294922 -1575.64672852 1690.35058594 C-1566.93432959 1733.39309835 -1566.93432959 1733.39309835 -1552.25 1774.390625 C-1551.53764024 1781.57528202 -1551.30129785 1787.81238891 -1555.7734375 1793.74609375 C-1561.67108324 1800.3146357 -1568.21551223 1803.30839031 -1576.984375 1803.859375 C-1578.65592848 1803.89377663 -1580.32814 1803.90322055 -1582 1803.890625 C-1582.90540527 1803.88490479 -1583.81081055 1803.87918457 -1584.74365234 1803.87329102 C-1620.64920034 1802.95223835 -1659.06674986 1782.48609958 -1683.71142578 1757.06591797 C-1691.62679258 1748.4471863 -1697.15122705 1738.47577102 -1702.06738281 1727.92529297 C-1703.42206345 1725.02184655 -1704.80152812 1722.13065472 -1706.1796875 1719.23828125 C-1740.81727834 1646.07105742 -1740.81727834 1646.07105742 -1740.5 1621.640625 C-1740.49178223 1620.86348145 -1740.48356445 1620.08633789 -1740.47509766 1619.28564453 C-1740.26874703 1608.50881653 -1740.00668643 1599.45627798 -1732.25 1591.390625 C-1731.58355469 1590.648125 -1730.91710938 1589.905625 -1730.23046875 1589.140625 C-1707.05884331 1564.50843714 -1674.33875714 1546.72014767 -1645.9543457 1528.75732422 C-1644.33208276 1527.73003625 -1642.71207988 1526.6991696 -1641.09448242 1525.66455078 C-1637.51685248 1523.38838352 -1633.94642848 1521.18673525 -1630.1953125 1519.20703125 C-1624.06420124 1516.26921646 -1624.06420124 1516.26921646 -1620.44921875 1510.92578125 C-1620.28013642 1508.33494913 -1620.28013642 1508.33494913 -1620.37109375 1505.765625 C-1620.18923342 1502.19881599 -1618.66296629 1500.62913092 -1616.22265625 1498.1484375 C-1612.53581591 1494.86313422 -1608.74624023 1491.73434524 -1604.86865234 1488.67675781 C-1603.16591682 1487.32381502 -1601.48237174 1485.94943175 -1599.80078125 1484.5703125 C-1591.97306855 1478.17905153 -1583.92275901 1472.2236563 -1575.62890625 1466.453125 C-1571.16630656 1463.34697196 -1566.77052337 1460.15313499 -1562.375 1456.953125 C-1553.91857231 1450.81867811 -1545.32255944 1444.90494615 -1536.67773438 1439.04003906 C-1534.33892787 1437.45104301 -1532.00460027 1435.85571937 -1529.671875 1434.2578125 C-1497.46589157 1412.21005923 -1465.01830089 1390.53240537 -1432.40129089 1369.09841919 C-1425.68558901 1364.68296217 -1418.99207192 1360.23559153 -1412.3125 1355.765625 C-1399.61176883 1347.27126718 -1386.82213942 1338.91364134 -1374.03173828 1330.55523682 C-1371.1663624 1328.68231831 -1368.30195894 1326.80791419 -1365.4375 1324.93359375 C-1339.77171482 1308.14206079 -1314.08320447 1291.38544527 -1288.32666016 1274.73339844 C-1284.80051684 1272.45338571 -1281.27531191 1270.17192294 -1277.75 1267.890625 C-1276.3333377 1266.97395159 -1274.91667103 1266.05728492 -1273.5 1265.140625 C-1272.79875 1264.686875 -1272.0975 1264.233125 -1271.375 1263.765625 C-1269.25 1262.390625 -1267.125 1261.015625 -1265 1259.640625 C-1264.29939453 1259.18727783 -1263.59878906 1258.73393066 -1262.87695312 1258.2668457 C-1261.45382839 1257.34602911 -1260.03065093 1256.42529402 -1258.60742188 1255.50463867 C-1255.16413629 1253.27711591 -1251.72163872 1251.04840101 -1248.28125 1248.81640625 C-1239.85324324 1243.3514269 -1231.40136742 1237.92491177 -1222.9375 1232.515625 C-1214.9868724 1227.43166516 -1207.04351072 1222.33699797 -1199.125 1217.203125 C-1198.32666748 1216.6870166 -1197.52833496 1216.1709082 -1196.70581055 1215.63916016 C-1195.95468994 1215.15108887 -1195.20356934 1214.66301758 -1194.4296875 1214.16015625 C-1193.78757324 1213.74354736 -1193.14545898 1213.32693848 -1192.48388672 1212.89770508 C-1191.37811279 1212.15170044 -1191.37811279 1212.15170044 -1190.25 1211.390625 C-1189.13560547 1210.69026123 -1188.02121094 1209.98989746 -1186.87304688 1209.26831055 C-1182.50531867 1206.11946885 -1179.95221455 1202.07894339 -1177.1015625 1197.578125 C-1176.53613739 1196.70969467 -1175.97071228 1195.84126434 -1175.38815308 1194.94651794 C-1174.17308714 1193.0773934 -1172.96388047 1191.20444922 -1171.76000977 1189.32809448 C-1169.19055376 1185.32403108 -1166.59224534 1181.33899378 -1163.99542236 1177.35264587 C-1162.66647694 1175.31212394 -1161.33896996 1173.2706645 -1160.01287842 1171.22828674 C-1154.03130285 1162.02205847 -1147.91690854 1152.91086119 -1141.75 1143.828125 C-1140.73275862 1142.32700697 -1139.71566982 1140.82578555 -1138.69873047 1139.32446289 C-1136.62762525 1136.26771418 -1134.55543908 1133.21170234 -1132.48242188 1130.15625 C-1126.64602969 1121.5529029 -1120.81919986 1112.94310953 -1115 1104.328125 C-1114.3997702 1103.43977966 -1113.79954041 1102.55143433 -1113.18112183 1101.63616943 C-1102.42840651 1085.71272485 -1091.82978562 1069.69021576 -1081.31738281 1053.60717773 C-1075.1933962 1044.2555069 -1068.93235188 1035.0270452 -1062.48794556 1025.89321899 C-1056.62775586 1017.56116727 -1051.03246174 1009.06407354 -1045.45962524 1000.53817749 C-1034.95087924 984.4675 -1024.32098175 968.48257368 -1013.5625 952.578125 C-1004.41053066 939.046962 -995.2965973 925.49248803 -986.25 911.890625 C-975.66316736 895.97512406 -964.99618563 880.11479232 -954.29296875 864.27734375 C-948.42242049 855.58907694 -942.57308926 846.88778034 -936.76443481 838.15800476 C-933.10282208 832.65926748 -929.41690873 827.17734234 -925.71875 821.703125 C-925.15972488 820.87557205 -924.60069977 820.0480191 -924.0247345 819.19538879 C-921.64798541 815.67782373 -919.27063123 812.16066815 -916.89285278 808.64379883 C-909.64017731 797.91341032 -902.42031153 787.16317033 -895.27734375 776.359375 C-893.99089072 774.41666315 -892.70443247 772.47395477 -891.41796875 770.53125 C-888.96626237 766.82791984 -886.52381863 763.11869131 -884.0859375 759.40625 C-882.97298054 757.72374377 -881.85971613 756.04144087 -880.74609375 754.359375 C-880.2463353 753.59266479 -879.74657684 752.82595459 -879.23167419 752.03601074 C-874.74650221 745.29079876 -874.74650221 745.29079876 -871.25 743.390625 C-870.11691406 743.31199219 -868.98382812 743.23335937 -867.81640625 743.15234375 C-864.05223373 742.34838576 -863.71552307 742.25445396 -861.65234375 739.34765625 C-860.80785819 737.98000655 -859.9877896 736.59709706 -859.1875 735.203125 C-858.2374785 733.64422684 -857.28693159 732.08564878 -856.3359375 730.52734375 C-855.83803711 729.69380371 -855.34013672 728.86026367 -854.82714844 728.00146484 C-852.07770957 723.44999438 -849.18264825 718.99153035 -846.3125 714.515625 C-843.95471994 710.80958334 -841.60226282 707.1001705 -839.25 703.390625 C-838.73824219 702.58367188 -838.22648438 701.77671875 -837.69921875 700.9453125 C-829.76801016 688.43116279 -821.90252775 675.87600762 -814.06542969 663.30273438 C-812.91326491 661.45456043 -811.76035804 659.60684874 -810.60644531 657.75976562 C-803.74284629 646.76945442 -797.02274467 635.69975867 -790.375 624.578125 C-782.50211779 611.40789675 -774.44135957 598.36560594 -766.25 585.390625 C-765.21468734 583.74619221 -764.17952481 582.1016649 -763.14453125 580.45703125 C-760.68731728 576.55555913 -758.22118984 572.6598059 -755.75244141 568.765625 C-754.21909543 566.34177227 -752.69322379 563.91332575 -751.16796875 561.484375 C-741.72393337 546.49180866 -731.89442184 531.76351791 -722.03401184 517.04325867 C-719.01320391 512.53354503 -716.00366457 508.01651283 -713.00146484 503.49438477 C-707.17809413 494.72771217 -701.24702158 486.03929067 -695.25 477.390625 C-694.6410791 476.51212891 -694.0321582 475.63363281 -693.40478516 474.72851562 C-672.89838321 445.16043939 -652.11311166 415.80609584 -630.22045898 387.24267578 C-626.33475636 382.16300014 -622.5169249 377.04222673 -618.7565918 371.86914062 C-612.78955866 363.66208574 -606.56118558 355.85316674 -599.84179688 348.25341797 C-597.9015771 345.98288471 -596.05955611 343.6411121 -594.19921875 341.3046875 C-589.18152654 335.15015396 -583.69961069 329.53710548 -578.06689453 323.94677734 C-576.37686758 322.26748072 -574.69782236 320.57773531 -573.01953125 318.88671875 C-563.98149131 309.83577288 -554.42301206 301.67663024 -543.9375 294.328125 C-543.21385254 293.82063721 -542.49020508 293.31314941 -541.74462891 292.7902832 C-535.13600921 288.21558695 -528.37611275 284.12335072 -521.25 280.390625 C-520.66573242 280.08286133 -520.08146484 279.77509766 -519.47949219 279.45800781 C-496.0278948 267.28048274 -467.66568307 262.81644308 -441.98046875 270.18359375 C-438.39303931 271.34434317 -434.857925 272.60823724 -431.3125 273.890625 C-419.24524733 278.10437918 -405.04931238 280.65115228 -392.25 280.390625 C-392.89066406 279.85695313 -393.53132813 279.32328125 -394.19140625 278.7734375 C-414.17869781 261.55636668 -421.48839331 236.8239962 -424.25 211.390625 C-424.74183021 204.64678423 -424.73678391 197.89869025 -424.6875 191.140625 C-424.68412628 190.23298401 -424.68075256 189.32534302 -424.67727661 188.39019775 C-424.41226199 138.73762212 -414.27918978 66.36795136 -378.25 29.390625 C-359.1949439 12.15889637 -334.83476243 3.93643028 -309.375 4.015625 C-308.3323851 4.01693924 -308.3323851 4.01693924 -307.26870728 4.01828003 C-284.66447886 4.11107691 -262.80545794 8.33516993 -240.74658203 12.87963867 C-232.62971163 14.54807404 -224.52171556 16.1122578 -216.3125 17.265625 C-215.54615234 17.37334229 -214.77980469 17.48105957 -213.99023438 17.59204102 C-211.74584299 17.88799652 -209.5006709 18.14712928 -207.25 18.390625 C-206.0278479 18.52984375 -206.0278479 18.52984375 -204.78100586 18.671875 C-178.14335946 21.32073978 -149.63639691 20.83427151 -123.25 16.390625 C-122.06519043 16.19194824 -120.88038086 15.99327148 -119.65966797 15.78857422 C-97.99875949 12.03063883 -77.17138094 6.12903722 -56.375 -0.921875 C-38.25290112 -7.01031922 -16.78462284 -12.00566773 0 0 Z M335.75 397.390625 C336.08 398.710625 336.41 400.030625 336.75 401.390625 C338.07 401.060625 339.39 400.730625 340.75 400.390625 C340.42 399.400625 340.09 398.410625 339.75 397.390625 C338.43 397.390625 337.11 397.390625 335.75 397.390625 Z " fill="#231F20" transform="translate(1740.25,6.609375)"/>
<path d="M0 0 C1.30819702 0.00737183 1.30819702 0.00737183 2.64282227 0.01489258 C12.43325399 0.19050974 21.22679298 1.94541205 30.265625 5.75 C37.58313237 8.6060586 44.8864219 9.93113742 52.625 11.125 C53.96309884 11.34181781 55.3009916 11.55991144 56.63867188 11.77929688 C59.86149556 12.30286029 63.08576985 12.81368646 66.3125 13.3125 C65.6918472 16.29292645 64.99758195 17.81440064 63.3125 20.5 C61.57601473 23.39323119 60.98294857 25.69313137 60.6875 29.05078125 C60.61273437 29.85169189 60.53796875 30.65260254 60.4609375 31.4777832 C60.41195313 32.08323975 60.36296875 32.68869629 60.3125 33.3125 C46.90008339 32.23881273 33.53549115 30.95827376 20.18408203 29.27807617 C9.36387392 27.45417422 9.36387392 27.45417422 -0.6875 30.1875 C-3.2823069 32.94448233 -3.64860169 33.79709743 -3.9375 37.625 C-3.66493907 41.64527369 -3.39952334 43.34622447 -0.6875 46.3125 C6.60054904 48.6270077 14.1792072 49.26891889 21.75 50.125 C23.23128941 50.29624601 24.71257173 50.46755335 26.19384766 50.63891602 C40.2363712 52.24733623 54.29960191 53.65597814 68.362854 55.06906128 C82.63030465 56.50338049 96.88165695 58.03146521 111.125 59.6875 C129.98297981 61.87822362 148.86317868 63.8283526 167.75 65.75 C188.11835071 67.82253577 208.47370271 69.96385129 228.8125 72.3125 C248.94317263 74.63639251 269.09025608 76.76030653 289.25 78.8125 C309.44802349 80.86900556 329.63757295 82.97540518 349.8125 85.25 C371.26029439 87.6677269 392.72079823 89.94558383 414.1875 92.1875 C440.15363417 94.89932302 466.10611208 97.71295279 492.05038071 100.626297 C515.57271505 103.26690502 539.10633112 105.76401442 562.65515137 108.15645218 C582.77788651 110.20106948 602.88322802 112.35789778 622.97640991 114.67779541 C642.07318527 116.87870497 661.18832915 118.86834265 680.3125 120.8125 C701.53285488 122.96975477 722.73666735 125.22406707 743.9258728 127.67221069 C766.97293861 130.32998744 790.04850203 132.6944988 813.12890625 135.04101562 C813.84391643 135.11379321 814.5589266 135.1865708 815.29560375 135.26155376 C818.66074876 135.60407396 822.02598099 135.94561951 825.39143372 136.28511047 C831.37565673 136.89235872 837.34845875 137.53062732 843.3125 138.3125 C842.79884205 148.98155144 841.15187076 159.39634218 839.4453125 169.92636108 C838.54749763 175.4710693 837.66835289 181.01873487 836.7890625 186.56640625 C836.50098724 188.38184685 836.50098724 188.38184685 836.20709229 190.23396301 C833.61377664 206.64234628 831.15524541 223.07136263 828.68810272 239.49909973 C828.31155335 242.00630314 827.93476817 244.51347101 827.55792236 247.02062988 C826.14064551 256.45093355 824.72592449 265.88161806 823.3125 275.3125 C784.75514035 276.40619907 746.20828605 276.47681746 707.63936472 276.47975707 C702.37509361 276.4802604 697.1108242 276.48257299 691.8465538 276.48525429 C674.25835758 276.49402192 656.67016734 276.49868088 639.08196892 276.49792381 C638.14322972 276.49788386 637.20449053 276.4978439 636.23730469 276.49780273 C634.82735075 276.49774141 634.82735075 276.49774141 633.3889129 276.49767885 C619.21369262 276.49730048 605.03849503 276.50512629 590.86328125 276.51831055 C428.22858294 276.66672814 428.22858294 276.66672814 358.70464921 274.39026904 C355.20500515 274.27649522 351.70525732 274.16605201 348.20551544 274.05533439 C343.51962139 273.90690867 338.83377772 273.75692495 334.14794922 273.60644531 C333.28365559 273.57869723 332.41936196 273.55094914 331.52887762 273.52236021 C240.7316966 270.59388873 149.50520192 266.53425805 50.3125 253.3125 C49.59592224 253.21408813 48.87934448 253.11567627 48.14105225 253.01428223 C23.85938356 249.66532584 -0.17894549 245.15485966 -23.68481445 238.11547852 C-27.69554899 237.04292742 -30.57117102 236.71376124 -34.6875 237.3125 C-37.4975346 239.10613911 -39.19690468 240.33130935 -40.6875 243.3125 C-40.77842257 245.35864084 -40.77842257 245.35864084 -40.5625 247.625 C-40.49675781 248.76388672 -40.49675781 248.76388672 -40.4296875 249.92578125 C-39.295609 253.57273895 -37.71208328 254.96426826 -34.6875 257.3125 C-31.23782757 258.78864072 -27.69562527 259.70715186 -24.0625 260.625 C-22.94931396 260.9142334 -21.83612793 261.2034668 -20.68920898 261.50146484 C39.0285333 276.41600177 101.1495082 281.40096429 162.3125 286.3125 C160.76064143 291.28659442 158.78158849 295.97231028 156.6640625 300.72265625 C156.29985199 301.54555649 155.93564148 302.36845673 155.56039429 303.21629333 C154.35539158 305.93703595 153.14646289 308.65601505 151.9375 311.375 C151.08310768 313.3019833 150.22894521 315.22906852 149.375 317.15625 C146.69135873 323.21004978 144.0022762 329.26142411 141.3125 335.3125 C140.46319222 337.22378494 139.61390788 339.1350803 138.76464844 341.04638672 C135.44338866 348.52045797 132.12139791 355.99420341 128.79736328 363.46704102 C122.33755567 377.99170429 115.90655116 392.52894471 109.4921875 407.07373047 C105.27836367 416.62470391 101.04282858 426.16554301 96.78125 435.6953125 C95.85865822 437.76103835 94.93613157 439.82679329 94.01367188 441.89257812 C92.67775044 444.88420855 91.34048146 447.87519017 89.99829102 450.86401367 C88.76595833 453.60820875 87.53878183 456.35465934 86.3125 459.1015625 C85.95087769 459.90280548 85.58925537 460.70404846 85.2166748 461.52957153 C82.91654233 466.69832195 81.00462442 471.9143467 79.3125 477.3125 C80.07433594 478.12332031 80.83617187 478.93414063 81.62109375 479.76953125 C87.29254308 485.83975436 92.7433659 491.98312167 97.94140625 498.46875 C101.25733918 502.44568439 104.7767687 506.21960492 108.328125 509.98632812 C110.54864244 512.35038825 112.50812951 514.60594426 114.3125 517.3125 C114.05371448 521.83214113 111.9223679 524.79541224 109.421875 528.47265625 C108.81046661 529.38028969 108.81046661 529.38028969 108.18670654 530.30625916 C107.29276151 531.6315861 106.39515627 532.95444972 105.49438477 534.27514648 C103.51476782 537.17824714 101.55327484 540.09342949 99.59082031 543.00814819 C98.5259005 544.58978602 97.46012212 546.17084606 96.39355469 547.75137329 C90.41405402 556.62076821 84.54010167 565.55895052 78.66555786 574.49804688 C76.8093996 577.31720893 74.94663149 580.13188999 73.08178711 582.9453125 C67.35536846 591.5924002 61.68808248 600.26142028 56.20703125 609.06640625 C39.25525009 636.1028103 39.25525009 636.1028103 24.32519531 642.4296875 C22.37037328 643.2871155 20.57864486 644.25852394 18.7421875 645.34375 C7.27560231 652.08199552 -5.29084318 656.6051004 -17.6875 661.3125 C-18.39342285 661.58723145 -19.0993457 661.86196289 -19.82666016 662.14501953 C-74.34245055 683.21625842 -139.85671213 677.84395028 -192.6875 655 C-195.36897067 653.80155849 -198.03039356 652.56392341 -200.6875 651.3125 C-201.43402832 650.96380859 -202.18055664 650.61511719 -202.94970703 650.25585938 C-230.20056416 637.41472926 -254.65405131 620.61387104 -277.6875 601.3125 C-278.5839624 600.56468262 -278.5839624 600.56468262 -279.49853516 599.80175781 C-296.22992624 585.80588228 -312.99550369 570.87522012 -327.09375 554.1875 C-329.03075871 551.90866622 -331.04655625 549.70925343 -333.0625 547.5 C-337.79326093 542.25069023 -342.25747052 536.81626055 -346.6875 531.3125 C-347.61288408 530.17936303 -348.53868393 529.04656551 -349.46484375 527.9140625 C-356.64759152 519.08800721 -363.42075776 510.01282215 -369.98046875 500.71533203 C-371.7896086 498.16877105 -373.62876092 495.64543459 -375.46875 493.12109375 C-376.68864449 491.4148802 -377.90742538 489.70786981 -379.125 488 C-380.00466431 486.80842285 -380.00466431 486.80842285 -380.90209961 485.59277344 C-381.42811768 484.84415039 -381.95413574 484.09552734 -382.49609375 483.32421875 C-382.96845459 482.66897217 -383.44081543 482.01372559 -383.92749023 481.33862305 C-384.6875 479.3125 -384.6875 479.3125 -384.00878906 476.85400391 C-382.70154992 474.33952507 -381.30893747 471.99548836 -379.73828125 469.63671875 C-379.14523193 468.73880615 -378.55218262 467.84089355 -377.94116211 466.91577148 C-376.98028687 465.4724646 -376.98028687 465.4724646 -376 464 C-370.60308414 455.81303705 -365.3015066 447.57813365 -360.125 439.25 C-355.28923902 431.4744594 -350.42376713 423.72015683 -345.5 416 C-344.92040527 415.09096924 -344.34081055 414.18193848 -343.74365234 413.24536133 C-342.6032008 411.45669891 -341.46273878 409.66804317 -340.32226562 407.87939453 C-335.75346364 400.70550205 -331.21634059 393.51166697 -326.6875 386.3125 C-325.80360596 384.90846924 -325.80360596 384.90846924 -324.90185547 383.47607422 C-317.85726251 372.27702477 -310.88281152 361.04507993 -304.10546875 349.68212891 C-295.09514745 334.59346418 -285.74237165 319.71001841 -276.31689453 304.87792969 C-275.19652429 303.11394249 -274.07780028 301.34890898 -272.96044922 299.58300781 C-262.36344315 282.84185591 -251.43767613 266.33467675 -240.41111755 249.87454224 C-237.44563435 245.44773391 -234.49135391 241.01365549 -231.54443359 236.57446289 C-220.51815376 219.97435499 -209.15106287 203.61267097 -197.6875 187.3125 C-197.16800781 186.57257813 -196.64851563 185.83265625 -196.11328125 185.0703125 C-185.01684125 169.2671563 -173.70030636 153.62986795 -162.22265625 138.1015625 C-159.86761245 134.91513558 -157.52172272 131.72229549 -155.18359375 128.5234375 C-147.71593238 118.31884958 -140.06248543 108.28298324 -132.26123047 98.33154297 C-130.39325816 95.93499767 -128.55308741 93.51830782 -126.71557617 91.09838867 C-118.56435852 80.38016775 -109.76932468 70.24855571 -100.6875 60.3125 C-99.75231269 59.27239742 -98.81743314 58.23201806 -97.8828125 57.19140625 C-73.53610899 30.24041356 -38.4439973 -0.25942649 0 0 Z " fill="#FEFEFE" transform="translate(1271.6875,294.6875)"/>
<path d="M0 0 C6.85709846 5.22375527 12.1834153 12.48288458 13.5625 21.0625 C15.41002636 40.80404574 9.4837753 60.18274863 -2.6875 75.875 C-20.57745562 96.299366 -50.52333984 109.16713661 -77.4375 111.0625 C-77.911875 110.2375 -78.38625 109.4125 -78.875 108.5625 C-85.95039108 98.13431036 -96.13961932 93.27084969 -108.17456055 90.65405273 C-126.31759414 87.22517063 -145.70425659 88.17135556 -163.9375 90.375 C-165.40437256 90.55119873 -165.40437256 90.55119873 -166.90087891 90.73095703 C-175.21619876 91.7481187 -175.21619876 91.7481187 -181.6796875 96.65185547 C-183.02141919 98.74617472 -184.23216174 100.88684639 -185.4375 103.0625 C-186.46406056 104.80355476 -187.49559895 106.541681 -188.53125 108.27734375 C-189.08079346 109.20329346 -189.63033691 110.12924316 -190.1965332 111.08325195 C-196.23866116 121.20599808 -202.6450855 130.73526291 -209.98828125 139.95703125 C-212.37349076 142.76553397 -212.37349076 142.76553397 -213.4375 145.0625 C-214.32888672 144.8459375 -214.32888672 144.8459375 -215.23828125 144.625 C-226.03931562 142.20610583 -237.06262575 141.48499184 -246.81640625 147.5390625 C-259.3686668 156.84175306 -268.43279116 170.96782822 -272.4375 186.0625 C-272.59605469 187.26777344 -272.75460937 188.47304687 -272.91796875 189.71484375 C-274.18653867 198.95728174 -274.18653867 198.95728174 -277.44921875 201.83984375 C-289.65384373 206.84641254 -307.86655433 206.09368178 -320.0625 201.5625 C-321.16851563 201.0984375 -322.27453125 200.634375 -323.4140625 200.15625 C-326.80444252 198.92975594 -328.86844525 198.50044413 -332.4375 199.0625 C-337.00333927 202.1459974 -339.39183416 205.10439406 -342 210 C-342.67224756 211.23168937 -343.34690841 212.46206339 -344.0234375 213.69140625 C-344.39694336 214.37477051 -344.77044922 215.05813477 -345.15527344 215.76220703 C-347.72442914 220.37122931 -350.43489707 224.89840142 -353.125 229.4375 C-353.67164307 230.36425537 -354.21828613 231.29101074 -354.78149414 232.24584961 C-357.92710019 237.56634921 -361.13858411 242.83564625 -364.4375 248.0625 C-371.92603287 245.61382749 -375.50951774 239.37783444 -379.33203125 232.8046875 C-403.70108811 184.49130679 -387.88117804 118.15422017 -372 69.8125 C-363.92804274 45.86266126 -353.48505316 26.90157304 -330.4375 15.0625 C-299.10462834 0.87478388 -259.49951306 10.80249548 -227.55102539 17.96020508 C-204.29531542 23.06454725 -180.61518165 24.28094131 -156.875 24.25 C-155.94419617 24.24906342 -155.01339233 24.24812683 -154.05438232 24.24716187 C-116.0238482 24.1642613 -80.48483196 17.00810023 -44.37841797 5.2590332 C-10.41847291 -5.75915585 -10.41847291 -5.75915585 0 0 Z " fill="#FEFEFE" transform="translate(1726.4375,21.9375)"/>
<path d="M0 0 C2.21104681 0.01084088 4.42129978 -0.00004142 6.63232422 -0.01269531 C28.19676059 -0.03481747 28.19676059 -0.03481747 36.81591797 6.26074219 C40.82526343 11.07195674 41.5558957 15.31200428 41.32373047 21.51855469 C38.65831586 41.16061003 30.1327739 60.89751069 20.81591797 78.26074219 C15.93082209 73.8641559 12.48145198 68.27677214 8.76904297 62.90332031 C5.50822286 58.28382516 2.46587551 54.52023954 -2.18408203 51.26074219 C-6.51354145 50.57714333 -8.37459197 50.73281389 -12.05908203 53.13574219 C-15.01074907 56.08740923 -15.1606129 56.78353648 -15.37158203 61.07324219 C-14.55945757 68.38236237 -8.772154 73.87329652 -4.18408203 79.26074219 C-6.10727504 83.32290109 -8.56767495 86.9801441 -11.03955078 90.72558594 C-12.39896551 93.73671275 -12.14459122 95.15713158 -11.18408203 98.26074219 C-5.19600074 96.94628532 -2.1497888 93.64883193 1.81591797 89.26074219 C2.70279297 89.90011719 3.58966797 90.53949219 4.50341797 91.19824219 C7.5695112 93.1073191 9.35259708 93.70023881 12.81591797 94.26074219 C7.18208013 105.81168345 1.13800612 117.07349001 -5.18408203 128.26074219 C-6.20752532 130.07584309 -7.23096259 131.89094739 -8.25439453 133.70605469 C-10.43707103 137.57394196 -12.62379698 141.43950763 -14.81298828 145.30371094 C-17.07790025 149.30235674 -19.33522231 153.30514438 -21.58642578 157.31152344 C-36.15516154 183.21736145 -36.15516154 183.21736145 -42.18408203 192.26074219 C-47.80012673 191.63565199 -49.84658489 188.95658778 -53.31689453 184.75292969 C-59.05255312 177.09738538 -59.7044244 170.40010464 -59.50610352 160.99951172 C-59.47901228 156.50273762 -59.47901228 156.50273762 -61.43481445 152.59326172 C-64.16680392 150.19994863 -66.16147193 149.26470887 -69.74658203 148.63574219 C-74.0431541 149.41693711 -75.47410287 150.91312086 -78.18408203 154.26074219 C-80.93420568 159.76098948 -79.81329606 170.67248189 -78.49658203 176.51074219 C-78.06345703 177.74824219 -77.63033203 178.98574219 -77.18408203 180.26074219 C-76.86568359 181.18113281 -76.54728516 182.10152344 -76.21923828 183.04980469 C-71.71114906 195.04101844 -64.40520166 202.7624618 -54.18408203 210.26074219 C-55.24283277 213.66386957 -56.19310357 216.2742745 -58.18408203 219.26074219 C-60.81000142 219.40575094 -63.14175289 219.35194216 -65.74658203 219.13574219 C-66.52654541 219.07717041 -67.30650879 219.01859863 -68.11010742 218.95825195 C-69.84549408 218.81950847 -71.58011048 218.67089454 -73.31396484 218.51416016 C-75.30933339 218.33797842 -77.30630538 218.17942929 -79.30419922 218.03466797 C-103.56900916 216.25038345 -103.56900916 216.25038345 -112.18408203 207.26074219 C-112.87630859 206.65230469 -113.56853516 206.04386719 -114.28173828 205.41699219 C-127.0087386 193.84253333 -135.45836036 176.76546013 -139.69580078 160.26855469 C-140.5933559 156.80758215 -141.26341888 154.45123955 -144.18408203 152.26074219 C-147.32279391 150.69138625 -149.72264025 150.90873116 -153.18408203 151.26074219 C-157.76871433 154.94116349 -159.53305592 158.6663115 -161.30908203 164.07324219 C-161.56133545 164.820979 -161.81358887 165.56871582 -162.07348633 166.33911133 C-166.4560222 179.8041092 -167.65722831 193.20044982 -168.18408203 207.26074219 C-181.90358384 206.72638871 -195.52791806 205.71774388 -209.18139648 204.26879883 C-212.3012562 203.94252437 -215.42302788 203.64187512 -218.54541016 203.34082031 C-220.5410169 203.13209632 -222.53646711 202.92186878 -224.53173828 202.70996094 C-225.45970718 202.62437424 -226.38767609 202.53878754 -227.34376526 202.4506073 C-233.59342727 201.74566368 -233.59342727 201.74566368 -236.34985352 199.48266602 C-237.44083532 196.5768933 -237.16439049 195.19382285 -236.18408203 192.26074219 C-235.00756836 189.87084961 -235.00756836 189.87084961 -233.51611328 187.36621094 C-232.95996338 186.42342285 -232.40381348 185.48063477 -231.83081055 184.50927734 C-231.22551514 183.49913574 -230.62021973 182.48899414 -229.99658203 181.44824219 C-228.70995979 179.27255786 -227.42350603 177.09677389 -226.13720703 174.92089844 C-225.47785156 173.81117676 -224.81849609 172.70145508 -224.13916016 171.55810547 C-221.14933203 166.51557067 -218.19750958 161.45110724 -215.24658203 156.38574219 C-214.39773438 154.93143799 -214.39773438 154.93143799 -213.53173828 153.44775391 C-208.34614059 144.55794977 -203.20268545 135.64402455 -198.0690918 126.72412109 C-197.47410889 125.69077637 -196.87912598 124.65743164 -196.26611328 123.59277344 C-195.74251221 122.68245361 -195.21891113 121.77213379 -194.67944336 120.83422852 C-193.204166 118.29530629 -191.70108477 115.77491573 -190.18408203 113.26074219 C-188.7670569 113.40305027 -187.35047243 113.54974965 -185.93408203 113.69824219 C-184.75072266 113.82005859 -184.75072266 113.82005859 -183.54345703 113.94433594 C-181.18408203 114.26074219 -181.18408203 114.26074219 -179.35839844 114.76782227 C-166.84590341 117.60441866 -151.35574393 115.8608112 -139.18408203 112.26074219 C-139.02552734 113.19273437 -138.86697266 114.12472656 -138.70361328 115.08496094 C-135.48764569 133.03400745 -135.48764569 133.03400745 -126.18408203 148.26074219 C-122.09025636 149.70116233 -119.33599204 149.53551527 -115.37158203 148.01074219 C-111.99349966 146.47580531 -111.99349966 146.47580531 -110.18408203 143.26074219 C-109.26675233 137.25543261 -110.06141057 132.63544881 -113.05371094 127.41723633 C-117.28547317 119.34398453 -117.73372778 110.97022932 -117.68408203 102.01074219 C-117.67836182 100.81505615 -117.6726416 99.61937012 -117.66674805 98.38745117 C-117.48445979 89.3779922 -116.43249794 82.31882073 -112.18408203 74.26074219 C-111.64138672 73.17664063 -111.09869141 72.09253906 -110.53955078 70.97558594 C-106.95014613 64.30723373 -103.13575001 58.73657618 -96.18408203 55.26074219 C-91.52615301 54.62016256 -88.23857413 54.52718247 -84.30908203 57.26074219 C-77.35302913 67.08105217 -75.98788936 81.49231727 -77.18408203 93.26074219 C-78.12436951 97.41750085 -79.27441523 101.44140858 -81.18408203 105.26074219 C-81.54831477 109.70438154 -81.67692675 112.23219669 -79.74658203 116.26074219 C-76.52549678 118.77475995 -74.48609799 118.85548974 -70.50048828 118.92480469 C-66.99909603 117.92103288 -65.47638696 116.0426288 -63.18408203 113.26074219 C-59.13109875 104.16765935 -58.66840613 95.04827086 -59.18408203 85.26074219 C-59.22992121 83.84803179 -59.27413056 82.43526777 -59.31689453 81.02246094 C-59.60214802 73.34117559 -60.34162125 66.20935493 -62.46533203 58.77636719 C-62.70251953 57.94621094 -62.93970703 57.11605469 -63.18408203 56.26074219 C-63.48830078 55.47699219 -63.79251953 54.69324219 -64.10595703 53.88574219 C-64.2333072 49.60677638 -61.56021394 47.21032031 -58.93408203 44.01074219 C-57.81364947 42.58331011 -56.69788728 41.15220182 -55.58642578 39.71777344 C-55.01649902 38.98252441 -54.44657227 38.24727539 -53.859375 37.48974609 C-46.82411785 28.12922471 -40.8580193 17.89105494 -34.91186523 7.81713867 C-32.2757884 3.35244856 -32.2757884 3.35244856 -31.18408203 2.26074219 C-20.82851009 0.4357779 -10.49629686 -0.06112065 0 0 Z " fill="#FDFDFD" transform="translate(1590.18408203125,129.7392578125)"/>
<path d="M0 0 C0.33 0 0.66 0 1 0 C1.06768371 6.08813046 0.84884778 12.04415749 0.30078125 18.10546875 C0.22594009 18.96492096 0.15109894 19.82437317 0.07398987 20.70986938 C-0.17438925 23.53626332 -0.42990156 26.36193196 -0.6875 29.1875 C-0.77747253 30.17761078 -0.86744507 31.16772156 -0.96014404 32.18783569 C-1.5315706 38.44751983 -2.11753703 44.70574161 -2.71221924 50.96325684 C-2.98423327 53.83362509 -3.25195478 56.70436528 -3.51904297 59.57519531 C-7.93415288 106.57712101 -15.61308753 153.29986013 -24.50390625 199.6484375 C-24.64197693 200.37532272 -24.78004761 201.10220795 -24.92230225 201.85112 C-25.88086185 206.76172369 -25.88086185 206.76172369 -27 209 C-37.64306888 209.02353681 -48.28613121 209.0411196 -58.92922115 209.05181217 C-63.87526834 209.05695313 -68.82129729 209.06388305 -73.76733398 209.07543945 C-97.8660626 209.13029488 -121.91777885 208.94494569 -146 208 C-145.43475024 198.54753593 -144.23746963 189.29023811 -142.71484375 179.94921875 C-142.49161219 178.55539661 -142.2688479 177.16149956 -142.04652405 175.76753235 C-141.46754884 172.14525039 -140.88234498 168.52400319 -140.29571533 164.9029541 C-139.69523711 161.18917691 -139.10082459 157.47442927 -138.50585938 153.75976562 C-137.34308253 146.50556223 -136.17370576 139.25244407 -135 132 C-134.15919388 131.96907761 -133.31838776 131.93815521 -132.45210266 131.90629578 C-124.5210696 131.61213225 -116.59069401 131.30455863 -108.66076374 130.98198223 C-104.58406059 130.81662071 -100.50729171 130.65641717 -96.42993164 130.50805664 C-92.49365392 130.36463856 -88.55813258 130.20759959 -84.62276268 130.04117775 C-83.12269156 129.98012611 -81.62241363 129.92395113 -80.12197304 129.87277794 C-78.0171619 129.80015104 -75.9137597 129.71007399 -73.80981445 129.6159668 C-72.61290482 129.56933395 -71.41599518 129.52270111 -70.18281555 129.47465515 C-66.72811342 128.9594534 -64.78091044 128.08378901 -62 126 C-60.40703635 123.37112771 -60.40703635 123.37112771 -59.2734375 120.2421875 C-58.57033447 118.48648438 -58.57033447 118.48648438 -57.85302734 116.6953125 C-57.61235535 116.07301758 -57.37168335 115.45072266 -57.12371826 114.80957031 C-56.10476856 112.17676443 -55.04937016 109.55908742 -53.99575806 106.94000244 C-53.45491327 105.59480292 -52.91584254 104.24888884 -52.37850952 102.90228271 C-38.72371599 68.732917 -21.73844969 36.61535678 -3 5 C-2.46511963 4.0726001 -1.93023926 3.1452002 -1.37915039 2.18969727 C-0.92403076 1.46709717 -0.46891113 0.74449707 0 0 Z " fill="#FDFDFD" transform="translate(2268,322)"/>
<path d="M0 0 C64.09045707 6.976111 64.09045707 6.976111 86.01855469 9.51293945 C94.55016674 10.49851368 103.0845792 11.45620479 111.62109375 12.3984375 C112.74797104 12.52285721 113.87484833 12.64727692 115.03587341 12.77546692 C117.36535516 13.03262475 119.69483821 13.28977079 122.02432251 13.54690552 C123.77572037 13.74024979 123.77572037 13.74024979 125.5625 13.9375 C127.30652603 14.12999832 127.30652603 14.12999832 129.08578491 14.3263855 C144.37937934 16.01663853 159.66243816 17.77509092 174.9375 19.625 C189.86704363 21.43202796 204.80789556 23.04870831 219.77050781 24.55566406 C230.24878401 25.61128325 240.72093069 26.7087598 251.1875 27.875 C251.90343323 27.95470032 252.61936646 28.03440063 253.35699463 28.11651611 C262.95081599 29.18711359 272.54046937 30.29244267 282.12890625 31.41015625 C303.53368535 33.90365169 324.93857637 36.35502628 346.375 38.5625 C347.3676889 38.66475891 348.36037781 38.76701782 349.38314819 38.87237549 C351.3836892 39.07836994 353.38423341 39.28433323 355.38478088 39.49026489 C356.367686 39.59144623 357.35059113 39.69262756 358.36328125 39.796875 C359.3410704 39.89749237 360.31885956 39.99810974 361.32627869 40.10177612 C390.63070546 43.12334126 419.90656396 46.41954034 449.18258667 49.70297241 C452.42494639 50.06661597 455.66740215 50.42938419 458.90994263 50.79141235 C462.75138778 51.22044516 466.59257513 51.6517185 470.43357849 52.08468819 C471.86314193 52.24549958 473.29278759 52.40558194 474.72251892 52.56489372 C476.69683211 52.78504505 478.67081224 53.00817719 480.64477539 53.23144531 C481.75623428 53.35626282 482.86769318 53.48108032 484.01283264 53.60968018 C486.69247745 53.9598174 489.35005581 54.47001116 492 55 C492 59.62 492 64.24 492 69 C482.6866017 69.18639464 473.64823822 68.46764738 464.4140625 67.390625 C462.92119694 67.2216028 461.42825983 67.05321146 459.93525696 66.88540649 C456.78947871 66.53067334 453.64418668 66.1720029 450.49923706 65.80999756 C445.57259858 65.24301759 440.64494886 64.68522075 435.71704102 64.12939453 C434.07508771 63.94412931 432.43313519 63.75885713 430.79118347 63.57357788 C429.98510336 63.48263226 429.17902325 63.39168663 428.34851646 63.29798508 C425.92862462 63.02464116 423.50883145 62.75043911 421.08906555 62.47598267 C410.04376609 61.2239402 398.99493768 60.01536784 387.9375 58.875 C372.78543306 57.30625539 357.64246856 55.65874039 342.5 54 C327.00309485 52.30286625 311.50548916 50.61694695 296 49 C279.28990522 47.25743409 262.5890371 45.43329999 245.88818359 43.60449219 C231.59513793 42.03988608 217.30088088 40.49132772 203 39 C186.28990522 37.25743409 169.5890371 35.43329999 152.88818359 33.60449219 C138.59513793 32.03988608 124.30088088 30.49132772 110 29 C93.3060226 27.25911485 76.6211399 25.43776536 59.93652344 23.60952759 C43.07240547 21.76203274 26.20540161 19.94745303 9.33007812 18.20507812 C8.24237122 18.09206108 8.24237122 18.09206108 7.13269043 17.97676086 C5.22528729 17.77862836 3.31772875 17.58199332 1.41015625 17.38549805 C-2.0717317 16.99189115 -5.53381328 16.51267912 -9 16 C-7.56691865 12.04093183 -5.66858051 8.71281819 -3.375 5.1875 C-2.74335937 4.21167969 -2.11171875 3.23585938 -1.4609375 2.23046875 C-0.73777344 1.12638672 -0.73777344 1.12638672 0 0 Z " fill="#FAFAFA" transform="translate(1564,336)"/>
<path d="M0 0 C0.33 0 0.66 0 1 0 C2.85538476 24.41971782 2.85538476 24.41971782 -3.25 31.8125 C-4.65574586 33.31672148 -6.07839333 34.80295279 -7.50732422 36.28515625 C-10.42386983 39.63579681 -12.57255031 43.49167057 -14.8125 47.3125 C-15.56237183 48.58444214 -15.56237183 48.58444214 -16.32739258 49.88208008 C-17.9017632 52.57875454 -19.45519109 55.28628888 -21 58 C-21.78745605 59.38324463 -21.78745605 59.38324463 -22.59082031 60.79443359 C-36.58433788 85.58331545 -47.82030774 111.57036534 -58.80033875 137.78843689 C-60.80154246 142.55627875 -62.87447674 147.2864313 -65 152 C-73.62116257 152.8026328 -82.22238752 153.27217582 -90.875 153.5625 C-92.03902344 153.60568359 -93.20304687 153.64886719 -94.40234375 153.69335938 C-102.60654669 153.9795525 -110.79129984 154.04920534 -119 154 C-118.93489583 151.00520833 -118.86979167 148.01041667 -118.8046875 145.015625 C-119.00423551 141.93460368 -119.14234421 140.44149047 -121 138 C-126.42433174 134.54115826 -131.83689844 134.18904811 -138.0859375 133.61328125 C-139.67131821 133.45317818 -139.67131821 133.45317818 -141.28872681 133.2898407 C-144.64982663 132.95297256 -148.01225848 132.63252066 -151.375 132.3125 C-153.66026366 132.08636929 -155.94542162 131.85916769 -158.23046875 131.63085938 C-163.81914761 131.07482793 -169.40900884 130.53224964 -175 130 C-175.495 127.525 -175.495 127.525 -176 125 C-167.08558023 124.81594294 -158.36497184 125.37520828 -149.49609375 126.2421875 C-148.12390958 126.3723804 -146.75168044 126.50210004 -145.37940979 126.63137817 C-141.79095858 126.97082108 -138.20320046 127.31711247 -134.61553955 127.66479492 C-131.73417303 127.94287889 -128.85235423 128.21608493 -125.97049713 128.48903084 C-99.18947841 131.02579065 -99.18947841 131.02579065 -86.79576111 132.41500854 C-75.18507695 134.24188943 -75.18507695 134.24188943 -64.47216797 131.32617188 C-61.70096532 128.71862508 -60.81371944 126.88663165 -59.5625 123.3203125 C-59.14935547 122.17900879 -58.73621094 121.03770508 -58.31054688 119.86181641 C-57.87806641 118.62866699 -57.44558594 117.39551758 -57 116.125 C-56.04256736 113.48537193 -55.06976677 110.85155643 -54.09375 108.21875 C-53.84338989 107.54115631 -53.59302979 106.86356262 -53.33508301 106.16543579 C-42.89422746 78.13206196 -29.64981912 51.04412287 -15 25 C-14.45569336 24.030625 -13.91138672 23.06125 -13.35058594 22.0625 C-11.71881243 19.16326478 -10.08033658 16.26797922 -8.4375 13.375 C-7.93677979 12.49183105 -7.43605957 11.60866211 -6.92016602 10.69873047 C-6.45022217 9.87775879 -5.98027832 9.05678711 -5.49609375 8.2109375 C-4.88012329 7.13271729 -4.88012329 7.13271729 -4.25170898 6.03271484 C-2.94606631 3.91241429 -1.56715852 1.93521363 0 0 Z " fill="#F9F9F9" transform="translate(2256,279)"/>
<path d="M0 0 C25.30743243 1.15033784 25.30743243 1.15033784 33.875 1.5625 C34.77734375 1.60568359 35.6796875 1.64886719 36.609375 1.69335938 C38.73959459 1.79533797 40.86979926 1.89762839 43 2 C41.57489893 5.94543117 39.69916509 9.21249641 37.38671875 12.70703125 C36.84328072 13.53267578 36.84328072 13.53267578 36.28886414 14.375 C35.09264804 16.19033821 33.89017494 18.00143569 32.6875 19.8125 C31.84869879 21.08199646 31.01032756 22.35177712 30.17236328 23.62182617 C28.84889366 25.62743549 27.52498759 27.63274599 26.19934082 29.63691711 C22.81477317 34.75544917 19.45572451 39.89020841 16.10546875 45.03125 C14.66497897 47.23869604 13.22420602 49.445957 11.78335571 51.65316772 C10.84366807 53.09392438 9.90500964 54.53535282 8.96737671 55.97744751 C7.65593454 57.99358862 6.34020263 60.00686406 5.0234375 62.01953125 C4.43256599 62.9314624 4.43256599 62.9314624 3.82975769 63.86181641 C2.9128863 65.25888531 1.96038053 66.63247526 1 68 C0.67 68 0.34 68 0 68 C0 45.56 0 23.12 0 0 Z " fill="#FCFCFC" transform="translate(1492,585)"/>
</svg>
