<svg width="238" height="154" viewBox="0 0 238 154" fill="none" xmlns="http://www.w3.org/2000/svg">
<path d="M101.237 15.6743C101.237 15.6743 77.0699 -2.20494 52.9103 0.227446C28.7507 2.65983 4.34082 33.8116 4.34082 33.8116L12.162 39.74C12.162 39.74 52.6991 6.10896 74.6531 30.9725C96.6072 55.836 101.237 15.6743 101.237 15.6743Z" fill="#7126B5"/>
<path opacity="0.2" d="M101.237 15.6743C101.237 15.6743 77.0699 -2.20494 52.9103 0.227446C28.7507 2.65983 4.34082 33.8116 4.34082 33.8116L12.162 39.74C12.162 39.74 52.6991 6.10896 74.6531 30.9725C96.6072 55.836 101.237 15.6743 101.237 15.6743Z" fill="white"/>
<path d="M0 13.1793H82.9826V66.7935H0V13.1793Z" fill="#FFD200"/>
<path opacity="0.45" d="M217.288 127.666C215.759 127.357 214.318 126.712 213.069 125.777C211.821 124.842 210.796 123.641 210.069 122.261V122.183L173.036 51.6597L152.654 66.0897L167.068 111.406C167.448 112.597 167.534 113.863 167.319 115.095C167.104 116.327 166.593 117.488 165.832 118.48C165.07 119.472 164.08 120.265 162.946 120.792C161.811 121.318 160.566 121.562 159.317 121.503C148.368 121.002 136.722 120.721 124.623 120.721C62.1157 120.721 11.4424 128.002 11.4424 136.989C11.4424 145.975 62.1157 153.265 124.623 153.265C187.129 153.265 237.764 145.983 237.764 137.012C237.764 133.524 230.185 130.309 217.288 127.666Z" fill="#E6E6E6"/>
<path d="M99.5169 131.678C99.5169 131.678 100.674 135.588 104.108 136.05C107.541 136.511 108.261 139.96 105.109 140.664C101.957 141.368 94.1594 136.949 94.1594 136.949L94.6522 131.983L99.5169 131.678Z" fill="#7126B5"/>
<path d="M32.6693 131.013C32.6693 131.013 28.6962 131.874 27.9766 135.26C27.2571 138.647 23.7688 139.1 23.2839 135.901C22.799 132.703 27.828 125.28 27.828 125.28L32.7397 126.164L32.6693 131.013Z" fill="#7126B5"/>
<path d="M33.2009 72.6201C33.2009 72.6201 29.5406 89.7016 42.7193 97.0222C55.898 104.343 97.4675 91.1641 91.0463 132.655H100.322C100.322 132.655 112.312 98.2423 81.2073 86.01L71.7671 75.3028L33.2009 72.6201Z" fill="#24285B"/>
<path d="M158.019 57.2756L161.174 60.2908L141.441 80.9408L138.285 77.9257L158.019 57.2756Z" fill="#FFD200"/>
<path opacity="0.08" d="M158.019 57.2756L161.174 60.2908L141.441 80.9408L138.285 77.9257L158.019 57.2756Z" fill="black"/>
<path d="M156.482 55.7971L159.637 58.8123L139.903 79.4623L136.748 76.4472L156.482 55.7971Z" fill="#FFD200"/>
<path d="M168.219 62.6121C173.293 57.3032 174.535 50.2561 170.993 46.8719C167.452 43.4878 160.468 45.048 155.395 50.3569C150.322 55.6658 149.08 62.7129 152.621 66.0971C156.163 69.4812 163.146 67.9209 168.219 62.6121Z" fill="#FFD200"/>
<path opacity="0.08" d="M168.219 62.6121C173.293 57.3032 174.535 50.2561 170.993 46.8719C167.452 43.4878 160.468 45.048 155.395 50.3569C150.322 55.6658 149.08 62.7129 152.621 66.0971C156.163 69.4812 163.146 67.9209 168.219 62.6121Z" fill="black"/>
<path d="M166.678 61.1458C171.752 55.8369 172.994 48.7898 169.452 45.4056C165.911 42.0215 158.927 43.5817 153.854 48.8906C148.781 54.1995 147.539 61.2466 151.08 64.6308C154.622 68.0149 161.605 66.4546 166.678 61.1458Z" fill="#FFD200"/>
<path opacity="0.57" d="M164.502 59.0655C167.853 55.5586 168.674 50.9036 166.335 48.6684C163.996 46.4331 159.383 47.4641 156.032 50.9711C152.68 54.4781 151.86 59.133 154.199 61.3683C156.538 63.6035 161.151 62.5725 164.502 59.0655Z" fill="white"/>
<path d="M133.938 17.6061C133.938 17.6061 130.41 22.729 126.985 25.2474C126.652 25.4894 126.276 25.6636 125.876 25.76C125.477 25.8564 125.062 25.8731 124.656 25.8092C124.25 25.7453 123.861 25.602 123.51 25.3875C123.159 25.173 122.854 24.8915 122.613 24.5591C121.369 22.815 120.196 20.0932 121.752 17.1212L123.77 11.748C124.293 10.7211 125.121 9.88109 126.141 9.34338C127.16 8.80567 128.321 8.59654 129.464 8.7447C133.742 8.99498 136.237 14.5949 133.938 17.6061Z" fill="#F4A28C"/>
<path d="M125.005 12.8508L109.089 19.2642L111.045 30.5892L122.518 21.2273L125.005 12.8508Z" fill="#F4A28C"/>
<path d="M132.584 16.8239C131.054 15.658 129.663 14.3196 128.439 12.8351C128.328 13.8405 127.927 14.7918 127.284 15.5725C126.641 16.3532 125.784 16.9294 124.818 17.2306C123.887 17.537 122.879 17.5103 121.966 17.155C121.053 16.7997 120.291 16.138 119.812 15.2831L124.974 9.18258C125.68 8.27981 126.617 7.58497 127.685 7.17184C128.754 6.75872 129.914 6.64274 131.044 6.83623C132.019 7.00427 132.983 7.23416 133.93 7.52449C136.276 8.30661 137.911 11.6071 140.492 11.7166C140.751 11.7293 141.003 11.8091 141.223 11.9483C141.442 12.0875 141.622 12.2812 141.744 12.5106C141.866 12.7399 141.926 12.9971 141.92 13.2568C141.913 13.5166 141.838 13.7701 141.704 13.9926C140.437 16.0965 137.668 18.7713 134.282 17.6998C133.672 17.5032 133.098 17.2072 132.584 16.8239Z" fill="#24285B"/>
<path d="M125.451 17.5123C125.451 17.5123 126.937 15.6352 125.451 14.6263C123.965 13.6174 121.783 16.3235 123.465 18.1302L125.451 17.5123Z" fill="#F4A28C"/>
<path d="M131.552 20.719L131.364 23.6676C131.348 23.8326 131.292 23.9911 131.2 24.1289C131.107 24.2667 130.982 24.3794 130.836 24.457C130.689 24.5345 130.526 24.5744 130.36 24.5731C130.194 24.5719 130.031 24.5295 129.886 24.4497L127.766 23.2765L131.552 20.719Z" fill="#F4A28C"/>
<path opacity="0.31" d="M121.229 22.2675C121.229 22.2675 121.706 18.7089 122.988 17.3558C122.988 17.3558 117.193 19.3111 117.06 25.6854L121.229 22.2675Z" fill="#CE8172"/>
<path opacity="0.08" d="M16.1585 65.4092C16.1585 65.4092 15.9082 28.5167 60.223 20.719L34.1863 66.7935H16.1976L16.1585 65.4092Z" fill="black"/>
<path d="M113.157 34.5075L111.843 26.8662C111.329 23.7499 110.033 20.815 108.076 18.3363C106.118 15.8576 103.564 13.9164 100.651 12.6943C98.1161 11.6808 95.4655 10.9847 92.7596 10.6217C89.287 10.1368 84.4223 10.6217 78.9787 12.0529C55.5309 18.2082 38.3243 38.074 34.7657 62.0224L33.2014 72.6201L71.7676 75.3028C71.7676 75.3028 69.8123 64.3531 83.4994 64.3531C97.1864 64.3531 114.518 64.4939 113.157 34.5075Z" fill="#7126B5"/>
<path opacity="0.08" d="M75.3654 22.6587C75.3654 22.6587 56.6493 25.9514 36.0796 55.5936L33.2014 72.6203L62.4682 74.7946L75.3654 22.6587Z" fill="black"/>
<path d="M96.8265 36.2909C100.479 24.1056 86.3149 14.2509 76.2177 21.9938C67.7709 28.462 58.229 40.1077 57.8536 59.7623C57.2045 95.2313 91.1796 88.8883 137.16 75.3029L135.698 64.9712C135.698 64.9712 80.6367 75.3812 88.1137 57.4863C91.2422 50.0015 94.8869 42.7747 96.8265 36.2909Z" fill="#7126B5"/>
<path opacity="0.2" d="M96.8265 36.2909C100.479 24.1056 86.3149 14.2509 76.2177 21.9938C67.7709 28.462 58.229 40.1077 57.8536 59.7623C57.2045 95.2313 91.1796 88.8883 137.16 75.3029L135.698 64.9712C135.698 64.9712 80.6367 75.3812 88.1137 57.4863C91.2422 50.0015 94.8869 42.7747 96.8265 36.2909Z" fill="white"/>
<path d="M77.4998 86.0959C77.4998 86.0959 78.6339 125.319 32.7393 132.655L30.9639 124.341C30.9639 124.341 67.7234 115.23 43.9783 90.8199L77.4998 86.0959Z" fill="#24285B"/>
<path opacity="0.08" d="M149.791 138.842C152.547 138.842 154.781 138.016 154.781 136.996C154.781 135.977 152.547 135.15 149.791 135.15C147.036 135.15 144.802 135.977 144.802 136.996C144.802 138.016 147.036 138.842 149.791 138.842Z" fill="black"/>
<path opacity="0.08" d="M168.875 134.063C171.631 134.063 173.865 133.237 173.865 132.218C173.865 131.198 171.631 130.372 168.875 130.372C166.119 130.372 163.885 131.198 163.885 132.218C163.885 133.237 166.119 134.063 168.875 134.063Z" fill="black"/>
<path opacity="0.08" d="M188.091 137.755C190.847 137.755 193.081 136.928 193.081 135.909C193.081 134.89 190.847 134.063 188.091 134.063C185.335 134.063 183.101 134.89 183.101 135.909C183.101 136.928 185.335 137.755 188.091 137.755Z" fill="black"/>
<path opacity="0.08" d="M217.515 139.609C220.271 139.609 222.505 138.782 222.505 137.763C222.505 136.743 220.271 135.917 217.515 135.917C214.759 135.917 212.525 136.743 212.525 137.763C212.525 138.782 214.759 139.609 217.515 139.609Z" fill="black"/>
<path opacity="0.08" d="M130.872 133.649C133.688 133.649 135.972 132.801 135.972 131.756C135.972 130.711 133.688 129.863 130.872 129.863C128.056 129.863 125.773 130.711 125.773 131.756C125.773 132.801 128.056 133.649 130.872 133.649Z" fill="black"/>
<path d="M135.979 66.9576C135.979 66.9576 148.633 65.6202 149.744 70.5632C150.855 75.5062 148.43 78.1263 137.042 74.4738L135.979 66.9576Z" fill="#F4A28C"/>
<path d="M9.90918 66.7934C9.90918 66.7934 11.7315 74.1766 19.0287 72.6202C26.3258 71.0638 21.1169 62.0069 9.90918 66.7934Z" fill="#F4A28C"/>
</svg>
